{"glyphs":{"0":{"ha":477,"x_min":0,"x_max":477,"o":"m 240 -13 l 240 -13 q 178 -13 130 14 q 81 41 54 88 q 26 135 26 195 l 26 195 q 26 255 54 301 q 81 347 130 373 q 178 399 240 399 l 240 399 q 303 399 351 373 q 398 346 425 300 q 451 253 451 193 l 451 193 q 451 133 424 87 q 397 40 350 14 q 302 -13 240 -13 z m 250 8 l 250 8 q 297 8 320 54 q 343 100 343 179 l 343 179 q 343 251 328 295 q 312 338 287 358 q 261 378 232 378 l 232 378 q 184 378 159 331 q 133 284 133 206 l 133 206 q 133 147 148 103 q 162 58 189 33 q 215 8 250 8 z"},"1":{"ha":332,"x_min":0,"x_max":332,"o":"m 119 81 l 119 305 q 119 334 114 349 q 109 364 93 369 q 76 374 42 374 l 42 374 q 40 374 40 380 q 40 386 42 386 l 42 386 q 68 386 99 385 q 130 384 166 384 l 166 384 q 201 384 233 385 q 265 386 290 386 l 290 386 q 293 386 293 380 q 293 374 290 374 l 290 374 q 258 374 242 369 q 225 364 219 349 q 213 334 213 305 l 213 305 l 213 81 q 213 52 218 37 q 223 22 240 17 q 256 12 290 12 l 290 12 q 293 12 293 6 q 293 0 290 0 l 290 0 q 265 0 234 1 q 202 2 166 2 l 166 2 q 131 2 100 1 q 68 0 42 0 l 42 0 q 40 0 40 6 q 40 12 42 12 l 42 12 q 74 12 91 17 q 107 22 113 37 q 119 52 119 81 l 119 81 z"},"2":{"ha":402,"x_min":0,"x_max":402,"o":"m 37 27 l 37 27 q 97 82 136 120 q 174 157 197 184 q 219 211 228 233 q 237 254 237 276 l 237 276 q 237 311 219 340 q 201 368 164 368 l 164 368 q 124 368 101 332 q 77 295 56 235 l 56 235 q 55 233 49 234 q 43 235 44 237 l 44 237 l 88 408 q 89 411 95 410 q 101 408 99 406 l 99 406 q 95 387 101 382 q 106 377 113 377 l 113 377 q 130 377 155 388 q 180 399 222 399 l 222 399 q 278 399 309 373 q 339 346 339 304 l 339 304 q 339 268 319 237 q 299 206 269 180 q 238 153 206 130 q 173 107 147 87 l 147 87 q 144 84 146 82 q 148 80 152 80 l 152 80 q 203 80 242 81 q 280 82 306 87 q 332 92 347 102 q 362 112 367 130 l 367 130 q 368 134 374 133 q 379 132 379 130 l 379 130 l 358 11 q 358 7 356 4 q 353 0 349 0 l 349 0 q 279 0 198 0 q 116 0 43 0 l 43 0 q 38 0 35 12 q 32 23 37 27 z"},"3":{"ha":394,"x_min":0,"x_max":394,"o":"m 54 -275 l 54 -275 q 50 -276 48 -271 q 45 -266 49 -264 l 49 -264 q 109 -240 149 -210 q 188 -180 212 -147 q 235 -115 245 -83 q 254 -52 254 -25 l 254 -25 q 254 14 241 44 q 227 73 202 89 q 177 105 143 105 l 143 105 q 133 105 123 104 q 113 102 102 99 l 102 99 q 99 98 97 104 q 95 110 98 111 l 98 111 q 166 129 199 165 q 232 201 232 268 l 232 268 q 232 317 218 344 q 203 371 173 371 l 173 371 q 131 371 97 343 q 63 314 40 258 l 40 258 q 39 256 33 257 q 27 258 28 261 l 28 261 l 65 407 q 67 410 73 409 q 78 407 77 405 l 77 405 q 73 388 79 383 q 85 377 92 377 l 92 377 q 109 377 138 388 q 166 399 206 399 l 206 399 q 269 399 301 364 q 333 329 333 285 l 333 285 q 333 248 315 214 q 297 179 263 154 q 229 129 181 119 l 181 119 l 182 135 q 246 133 286 112 q 326 90 345 58 q 363 25 363 -12 l 363 -12 q 363 -57 331 -106 q 298 -155 230 -199 q 161 -243 54 -275 z"},"4":{"ha":456,"x_min":0,"x_max":456,"o":"m 34 8 l 34 8 q 30 8 27 12 q 23 16 27 20 l 27 20 l 337 396 q 339 399 346 398 q 352 397 352 392 l 352 392 l 352 -135 q 352 -145 344 -149 l 344 -149 l 265 -188 q 256 -193 256 -182 l 256 -182 l 256 278 l 335 338 l 89 49 q 86 45 88 44 q 90 42 94 42 l 94 42 q 148 42 191 43 q 234 43 271 44 q 308 44 344 46 q 380 47 420 48 l 420 48 q 423 48 424 37 q 424 25 423 13 q 421 1 418 1 l 418 1 q 380 3 341 5 q 301 6 256 7 q 211 7 157 8 q 102 8 34 8 z"},"5":{"ha":409,"x_min":0,"x_max":409,"o":"m 85 177 l 78 196 q 180 196 242 172 q 304 148 332 106 q 360 64 360 9 l 360 9 q 360 -48 330 -94 q 300 -141 236 -184 q 172 -228 68 -275 l 68 -275 q 64 -276 61 -271 q 58 -266 62 -264 l 62 -264 q 138 -221 181 -178 q 223 -136 240 -93 q 257 -51 257 -8 l 257 -8 q 257 74 209 121 q 160 167 68 167 l 68 167 q 56 167 58 179 l 58 179 l 90 357 q 91 364 93 366 q 95 367 103 368 l 103 368 q 189 378 237 385 q 285 391 307 396 q 329 400 336 407 q 342 413 345 423 l 345 423 q 346 426 352 426 q 357 425 356 421 l 356 421 l 336 310 q 333 298 327 295 q 321 292 308 292 l 308 292 l 118 288 q 105 288 103 274 l 103 274 l 85 177 z"},"6":{"ha":465,"x_min":0,"x_max":465,"o":"m 309 288 l 309 288 q 356 288 385 269 q 413 249 427 220 q 440 190 440 159 l 440 159 q 440 112 412 73 q 383 33 336 10 q 288 -13 230 -13 l 230 -13 q 142 -13 90 45 q 37 103 37 207 l 37 207 q 37 301 81 391 q 124 481 206 552 q 287 623 400 661 l 400 661 q 404 662 406 657 q 408 652 405 650 l 405 650 q 316 606 257 536 q 198 466 169 384 q 139 302 139 221 l 139 221 q 139 164 154 116 q 168 68 195 40 q 221 11 257 11 l 257 11 q 294 11 316 42 q 338 73 338 130 l 338 130 q 338 181 318 214 q 298 246 255 246 l 255 246 q 236 246 220 239 q 204 232 184 218 l 184 218 q 181 215 177 219 q 172 222 173 225 l 173 225 q 199 253 232 271 q 265 288 309 288 z"},"7":{"ha":429,"x_min":0,"x_max":429,"o":"m 391 373 l 177 -212 q 173 -222 169 -227 q 164 -233 156 -236 l 156 -236 l 74 -275 q 71 -276 69 -273 q 66 -270 67 -268 l 67 -268 l 327 291 q 331 298 323 298 l 323 298 q 242 298 190 297 q 138 296 107 292 q 76 288 60 281 q 44 273 37 261 q 30 249 25 230 l 25 230 q 24 227 18 228 q 12 229 13 233 l 13 233 l 58 413 q 60 415 66 415 q 71 414 70 412 l 70 412 q 66 395 75 391 q 84 386 117 386 l 117 386 q 132 386 163 386 q 194 386 233 386 q 272 386 312 386 q 351 386 382 386 l 382 386 q 387 386 390 382 q 393 377 391 373 l 391 373 z"},"8":{"ha":489,"x_min":0,"x_max":489,"o":"m 302 345 l 296 351 q 307 376 315 402 q 322 427 322 453 l 322 453 q 322 498 300 526 q 277 553 247 553 l 247 553 q 219 553 203 535 q 186 516 186 488 l 186 488 q 186 457 205 432 q 224 407 254 387 q 284 366 317 345 l 317 345 q 353 323 387 299 q 420 274 442 242 q 463 209 463 164 l 463 164 q 463 112 433 72 q 402 32 352 10 q 301 -13 241 -13 l 241 -13 q 179 -13 133 10 q 87 33 62 71 q 37 108 37 153 l 37 153 q 37 195 59 233 q 80 271 120 302 q 159 332 212 349 l 212 349 l 218 340 q 183 318 162 275 q 140 232 140 180 l 140 180 q 140 135 157 96 q 173 57 202 33 q 231 9 268 9 l 268 9 q 301 9 324 26 q 347 42 359 69 q 371 95 371 124 l 371 124 q 371 164 350 192 q 329 219 297 241 q 265 263 230 284 l 230 284 q 197 305 167 328 q 137 351 118 381 q 98 410 98 448 l 98 448 q 98 494 124 522 q 149 549 186 562 q 223 574 257 574 l 257 574 q 305 574 339 558 q 372 542 390 518 q 407 494 407 470 l 407 470 q 407 439 380 403 q 353 366 302 345 l 302 345 z"},"9":{"ha":465,"x_min":0,"x_max":465,"o":"m 164 104 l 164 104 q 114 104 84 126 q 53 148 40 180 q 26 212 26 243 l 26 243 q 26 289 50 324 q 73 359 116 379 q 158 399 214 399 l 214 399 q 281 399 329 371 q 376 343 402 293 q 428 242 428 172 l 428 172 q 428 105 404 38 q 380 -30 334 -91 q 287 -153 220 -200 q 152 -248 65 -275 l 65 -275 q 62 -276 60 -271 q 57 -266 61 -264 l 61 -264 q 128 -233 178 -185 q 227 -138 260 -80 q 293 -23 310 38 q 326 98 326 154 l 326 154 q 326 189 320 228 q 313 266 299 301 q 284 335 260 357 q 235 378 200 378 l 200 378 q 160 378 144 348 q 127 317 127 268 l 127 268 q 127 213 148 178 q 168 143 211 143 l 211 143 q 229 143 246 151 q 262 158 282 174 l 282 174 q 284 177 289 174 q 294 170 292 167 l 292 167 q 244 104 164 104 z"}," ":{"ha":234,"x_min":0,"x_max":234,"o":""},"!":{"ha":263,"x_min":0,"x_max":263,"o":"m 61 615 l 61 615 q 60 620 72 623 q 83 626 100 628 q 117 629 131 629 l 131 629 q 145 629 162 628 q 179 626 192 623 q 204 620 202 615 l 202 615 q 184 552 174 479 q 163 405 157 331 q 151 256 146 189 l 146 189 q 146 186 138 185 q 129 183 121 185 q 112 186 112 189 l 112 189 q 108 256 103 331 q 97 405 88 479 q 78 552 61 615 z m 125 -11 l 125 -11 q 97 -11 81 6 q 64 22 64 50 l 64 50 q 64 76 81 92 q 97 108 125 108 l 125 108 q 154 108 169 92 q 184 76 184 50 l 184 50 q 184 22 169 6 q 154 -11 125 -11 z"},"\"":{"ha":302,"x_min":0,"x_max":302,"o":"m 57 365 l 57 365 l 28 606 q 27 615 44 623 q 61 631 84 636 q 106 641 122 641 q 138 640 136 632 l 136 632 l 73 366 q 72 364 65 363 q 57 362 57 365 z m 209 365 l 209 365 l 180 606 q 179 615 196 623 q 213 631 236 636 q 258 641 274 641 q 290 640 288 632 l 288 632 l 225 366 q 224 364 217 363 q 209 362 209 365 z"},"#":{"ha":526,"x_min":0,"x_max":526,"o":"m 248 471 l 150 -83 q 150 -86 137 -85 q 124 -84 111 -80 q 98 -77 99 -75 l 99 -75 l 198 482 q 198 485 211 483 q 223 481 236 478 q 249 474 248 471 l 248 471 z m 435 471 l 337 -83 q 337 -86 324 -85 q 311 -84 299 -80 q 286 -77 287 -75 l 287 -75 l 385 482 q 385 485 398 483 q 410 481 423 478 q 436 474 435 471 l 435 471 z m 428 74 l 63 74 q 60 74 59 86 q 58 98 59 110 q 60 122 62 122 l 62 122 l 428 122 q 431 122 432 110 q 433 98 432 86 q 431 74 428 74 l 428 74 z m 463 273 l 98 273 q 95 273 94 285 q 93 297 94 309 q 95 320 97 320 l 97 320 l 463 320 q 466 320 467 309 q 468 297 467 285 q 466 273 463 273 l 463 273 z"},"$":{"ha":422,"x_min":0,"x_max":422,"o":"m 205 -102 l 205 -102 l 205 561 q 205 566 213 568 q 220 569 227 568 q 234 566 234 561 l 234 561 l 234 -102 q 234 -106 227 -107 q 220 -109 213 -107 q 205 -106 205 -102 z m 137 392 l 137 392 q 137 363 155 342 q 172 321 200 306 q 227 290 258 275 l 258 275 q 291 258 322 239 q 352 220 372 195 q 391 169 391 131 l 391 131 q 391 91 368 59 q 344 26 304 7 q 263 -12 211 -12 l 211 -12 q 163 -12 120 0 q 77 12 61 25 l 61 25 q 57 27 55 32 q 53 37 53 46 l 53 46 l 48 159 q 48 164 53 165 q 58 165 60 161 l 60 161 q 78 130 102 95 q 126 60 157 36 q 188 11 226 11 l 226 11 q 246 11 263 19 q 280 26 291 43 q 302 59 302 85 l 302 85 q 302 119 283 143 q 264 166 235 185 q 206 203 175 219 l 175 219 q 145 235 118 253 q 90 271 72 295 q 54 319 54 353 l 54 353 q 54 394 79 422 q 103 450 143 465 q 183 480 228 480 l 228 480 q 263 480 298 473 q 332 465 351 457 l 351 457 q 361 454 364 449 q 366 444 366 437 l 366 437 l 366 342 q 366 339 361 338 q 356 336 354 339 l 354 339 q 351 346 341 365 q 330 384 312 405 q 294 426 269 442 q 244 457 211 457 l 211 457 q 171 457 154 438 q 137 419 137 392 z"},"%":{"ha":574,"x_min":0,"x_max":574,"o":"m 150 303 l 150 303 q 92 303 55 341 q 18 378 18 433 l 18 433 q 18 468 35 497 q 52 526 82 543 q 112 560 150 560 l 150 560 q 208 560 244 522 q 280 484 280 430 l 280 430 q 280 377 244 340 q 207 303 150 303 z m 157 319 l 157 319 q 184 319 191 349 q 198 379 198 423 l 198 423 q 198 544 144 544 l 144 544 q 116 544 108 512 q 99 480 99 436 l 99 436 q 99 387 111 353 q 123 319 157 319 z m 427 -5 l 427 -5 q 389 -5 359 13 q 329 30 312 60 q 295 89 295 125 l 295 125 q 295 160 312 189 q 329 218 359 236 q 389 253 427 253 l 427 253 q 466 253 495 236 q 524 218 541 189 q 557 159 557 123 l 557 123 q 557 69 521 32 q 484 -5 427 -5 z m 434 12 l 434 12 q 461 12 468 42 q 475 71 475 116 l 475 116 q 475 236 421 236 l 421 236 q 393 236 385 205 q 377 173 377 129 l 377 129 q 377 80 389 46 q 400 12 434 12 z m 481 535 l 110 -8 q 109 -10 101 -5 q 93 -1 86 5 q 79 11 80 13 l 80 13 l 450 557 q 452 559 460 554 q 468 549 475 543 q 482 537 481 535 l 481 535 z"},"&":{"ha":716,"x_min":0,"x_max":716,"o":"m 65 131 l 65 131 q 65 170 86 201 q 107 232 141 260 q 174 287 212 315 q 249 342 283 373 q 316 404 337 441 q 358 478 358 525 l 358 525 q 358 570 337 595 q 316 619 284 619 l 284 619 q 256 619 244 601 q 232 582 232 547 l 232 547 q 232 492 258 435 q 283 378 326 323 q 368 268 421 218 q 473 168 527 127 l 527 127 q 598 74 649 47 q 700 19 725 12 l 725 12 q 729 11 729 6 q 728 0 725 0 l 725 0 q 694 0 651 0 q 607 0 561 0 l 561 0 q 550 0 532 8 q 514 16 484 37 q 453 57 404 96 l 404 96 q 362 130 316 173 q 270 216 231 263 q 191 309 167 353 l 167 353 q 154 378 146 404 q 138 429 138 461 l 138 461 q 138 514 161 556 q 184 598 227 622 q 270 646 330 646 l 330 646 q 371 646 401 634 q 431 622 448 600 q 464 578 464 546 l 464 546 q 464 506 443 475 q 421 444 387 418 q 353 392 315 367 q 277 342 243 316 q 209 290 188 259 q 166 228 166 188 l 166 188 q 166 150 188 116 q 210 81 252 59 q 293 37 351 37 l 351 37 q 392 37 422 50 q 452 62 472 86 q 491 110 501 146 q 510 181 510 226 l 510 226 q 510 283 492 310 q 473 337 429 337 l 429 337 q 427 337 427 343 q 426 349 429 349 l 429 349 l 667 350 q 670 350 670 344 q 670 338 667 338 l 667 338 q 637 338 622 331 q 607 324 600 308 q 592 291 584 262 l 584 262 q 576 233 563 197 q 550 160 529 124 q 507 87 474 56 q 440 25 391 7 q 342 -12 274 -12 l 274 -12 q 202 -12 156 9 q 109 30 87 63 q 65 96 65 131 z"},"'":{"ha":150,"x_min":0,"x_max":150,"o":"m 57 365 l 57 365 l 28 606 q 27 615 44 623 q 61 631 84 636 q 106 641 122 641 q 138 640 136 632 l 136 632 l 73 366 q 72 364 65 363 q 57 362 57 365 z"},"(":{"ha":309,"x_min":0,"x_max":309,"o":"m 44 304 l 44 304 q 44 398 71 480 q 98 562 150 626 q 201 689 274 725 l 274 725 q 276 726 278 724 q 280 721 278 719 l 278 719 q 214 647 185 543 q 156 439 156 304 l 156 304 q 156 169 185 65 q 214 -39 278 -111 l 278 -111 q 280 -112 278 -115 q 276 -118 274 -117 l 274 -117 q 201 -80 150 -17 q 98 46 71 129 q 44 211 44 304 z"},")":{"ha":309,"x_min":0,"x_max":309,"o":"m 265 304 l 265 304 q 265 211 238 129 q 211 46 160 -17 q 109 -81 36 -117 l 36 -117 q 34 -118 32 -115 q 29 -113 31 -111 l 31 -111 q 96 -39 125 65 q 153 169 153 304 l 153 304 q 153 439 125 543 q 96 647 31 719 l 31 719 q 29 721 32 724 q 34 726 36 725 l 36 725 q 109 689 160 626 q 211 562 238 480 q 265 398 265 304 z"},"*":{"ha":448,"x_min":0,"x_max":448,"o":"m 215 485 l 160 366 q 157 360 138 365 q 119 370 98 380 q 76 390 61 400 q 46 409 50 411 l 50 411 l 206 491 q 208 493 212 491 q 216 488 215 485 l 215 485 z m 261 309 l 261 309 l 232 481 q 231 483 236 487 q 240 490 241 488 l 241 488 l 337 399 q 343 394 333 378 q 322 362 306 344 q 289 326 276 315 q 262 304 261 309 z m 204 511 l 204 511 l 73 526 q 66 527 65 546 q 64 565 67 590 q 70 614 75 631 q 79 647 82 644 l 82 644 l 207 520 q 209 519 208 515 q 206 510 204 511 z m 425 477 l 425 477 l 250 504 q 248 504 247 508 q 245 512 248 513 l 248 513 l 361 578 q 368 581 381 567 q 393 552 405 531 q 417 509 424 493 q 430 477 425 477 z m 226 529 l 226 529 l 200 657 q 199 665 217 672 q 234 678 258 683 q 282 688 300 689 q 317 690 315 685 l 315 685 l 236 529 q 235 526 231 526 q 226 526 226 529 z"},"+":{"ha":398,"x_min":0,"x_max":398,"o":"m 364 165 l 34 165 q 31 165 30 178 q 29 190 30 202 q 31 214 33 214 l 33 214 l 364 214 q 367 214 368 202 q 369 190 368 178 q 367 165 364 165 l 364 165 z m 223 354 l 223 25 q 223 22 211 21 q 199 20 187 21 q 174 21 174 23 l 174 23 l 174 354 q 174 357 187 358 q 199 359 211 358 q 223 357 223 354 l 223 354 z"},",":{"ha":222,"x_min":0,"x_max":222,"o":"m 101 106 l 101 106 q 136 106 156 83 q 175 59 175 9 l 175 9 q 175 -46 149 -94 q 122 -143 75 -189 l 75 -189 q 71 -192 68 -189 q 65 -186 67 -182 l 67 -182 q 96 -147 106 -114 q 115 -81 115 -44 l 115 -44 q 115 -14 110 -1 q 104 12 94 20 l 94 20 l 131 27 q 132 10 121 1 q 110 -8 91 -8 l 91 -8 q 65 -8 51 8 q 36 23 36 48 l 36 48 q 36 76 54 91 q 72 106 101 106 z"},"-":{"ha":323,"x_min":0,"x_max":323,"o":"m 291 201 l 32 154 q 29 154 28 167 q 27 180 28 194 q 28 208 30 208 l 30 208 l 291 255 q 294 256 295 243 q 296 229 295 216 q 294 202 291 201 l 291 201 z"},".":{"ha":207,"x_min":0,"x_max":207,"o":"m 105 -11 l 105 -11 q 77 -11 61 6 q 44 22 44 50 l 44 50 q 44 76 61 92 q 77 108 105 108 l 105 108 q 134 108 149 92 q 164 76 164 50 l 164 50 q 164 22 149 6 q 134 -11 105 -11 z"},"/":{"ha":351,"x_min":0,"x_max":351,"o":"m 325 716 l 74 -165 q 73 -168 61 -165 q 48 -163 37 -158 q 26 -154 26 -152 l 26 -152 l 278 730 q 280 733 292 731 q 303 728 315 724 q 326 719 325 716 l 325 716 z"},":":{"ha":207,"x_min":0,"x_max":207,"o":"m 105 -11 l 105 -11 q 77 -11 61 6 q 44 22 44 50 l 44 50 q 44 76 61 92 q 77 108 105 108 l 105 108 q 134 108 149 92 q 164 76 164 50 l 164 50 q 164 22 149 6 q 134 -11 105 -11 z m 105 270 l 105 270 q 77 270 61 287 q 44 303 44 331 l 44 331 q 44 357 61 373 q 77 389 105 389 l 105 389 q 134 389 149 373 q 164 357 164 331 l 164 331 q 164 303 149 287 q 134 270 105 270 z"},";":{"ha":232,"x_min":0,"x_max":232,"o":"m 110 106 l 110 106 q 145 106 165 83 q 184 59 184 9 l 184 9 q 184 -46 158 -94 q 131 -143 84 -189 l 84 -189 q 80 -192 77 -189 q 74 -186 76 -182 l 76 -182 q 105 -147 115 -114 q 124 -81 124 -44 l 124 -44 q 124 -14 119 -1 q 113 12 103 20 l 103 20 l 140 27 q 141 10 130 1 q 119 -8 100 -8 l 100 -8 q 74 -8 60 8 q 45 23 45 48 l 45 48 q 45 76 63 91 q 81 106 110 106 z m 107 270 l 107 270 q 79 270 63 287 q 46 303 46 331 l 46 331 q 46 357 63 373 q 79 389 107 389 l 107 389 q 136 389 151 373 q 166 357 166 331 l 166 331 q 166 303 151 287 q 136 270 107 270 z"},"<":{"ha":407,"x_min":0,"x_max":407,"o":"m 370 25 l 36 173 q 31 176 31 191 q 31 205 36 207 l 36 207 l 370 354 q 375 357 377 346 q 378 334 377 322 q 375 309 370 306 l 370 306 l 54 171 l 54 209 l 370 74 q 375 72 377 59 q 378 45 377 34 q 375 23 370 25 l 370 25 z"},"=":{"ha":468,"x_min":0,"x_max":468,"o":"m 434 96 l 34 96 q 31 96 30 108 q 29 120 30 132 q 31 143 33 143 l 33 143 l 434 143 q 437 143 438 132 q 439 120 438 108 q 437 96 434 96 l 434 96 z m 434 236 l 34 236 q 31 236 30 248 q 29 260 30 272 q 31 283 33 283 l 33 283 l 434 283 q 437 283 438 272 q 439 260 438 248 q 437 236 434 236 l 434 236 z"},">":{"ha":407,"x_min":0,"x_max":407,"o":"m 37 354 l 371 206 q 376 203 376 189 q 376 174 371 172 l 371 172 l 37 25 q 33 23 32 34 q 30 45 32 58 q 33 71 37 73 l 37 73 l 353 208 l 353 170 l 37 305 q 33 308 32 321 q 30 334 32 346 q 33 357 37 354 l 37 354 z"},"?":{"ha":339,"x_min":0,"x_max":339,"o":"m 165 606 l 165 606 q 149 606 144 593 q 139 580 137 565 l 137 565 q 136 553 132 537 q 128 520 117 508 q 105 496 80 496 l 80 496 q 52 496 41 512 q 30 527 30 543 l 30 543 q 30 578 69 602 q 107 625 165 625 l 165 625 q 206 625 241 612 q 276 599 298 573 q 319 546 319 506 l 319 506 q 319 472 304 449 q 288 425 266 408 q 244 390 222 371 l 222 371 q 191 344 177 315 q 163 285 163 248 l 163 248 q 163 236 165 224 q 166 212 168 195 l 168 195 q 170 192 162 190 q 154 188 152 191 l 152 191 q 140 219 133 254 q 126 289 126 312 l 126 312 q 126 340 135 359 q 143 378 155 393 q 167 408 179 425 q 191 441 200 463 q 208 485 208 519 l 208 519 q 208 556 197 581 q 186 606 165 606 z m 153 -11 l 153 -11 q 125 -11 109 6 q 92 22 92 50 l 92 50 q 92 76 109 92 q 125 108 153 108 l 153 108 q 182 108 197 92 q 212 76 212 50 l 212 50 q 212 22 197 6 q 182 -11 153 -11 z"},"@":{"ha":729,"x_min":0,"x_max":729,"o":"m 406 147 l 406 147 l 426 234 l 460 247 q 437 192 403 148 q 369 104 333 79 q 296 54 263 54 l 263 54 q 238 54 219 74 q 200 93 207 143 l 207 143 q 213 185 235 224 q 256 262 287 293 q 318 324 353 342 q 387 360 418 360 l 418 360 q 438 360 456 349 q 474 337 476 311 l 476 311 l 447 330 q 462 332 480 342 q 498 352 502 367 l 502 367 q 504 369 512 369 q 519 368 519 366 l 519 366 l 478 142 q 473 114 480 98 q 487 82 513 82 l 513 82 q 535 82 560 99 q 585 116 603 150 q 621 184 621 236 l 621 236 q 621 304 589 359 q 557 414 501 447 q 444 480 372 480 l 372 480 q 294 480 239 442 q 184 403 155 340 q 126 276 126 201 l 126 201 q 126 118 160 57 q 194 -4 256 -37 q 318 -71 401 -71 l 401 -71 q 445 -71 485 -60 q 525 -50 568 -20 l 568 -20 q 571 -18 574 -22 q 577 -26 574 -28 l 574 -28 q 518 -76 466 -91 q 414 -106 365 -106 l 365 -106 q 282 -106 214 -73 q 145 -40 105 23 q 64 86 64 175 l 64 175 q 64 249 92 309 q 120 369 168 413 q 216 456 278 480 q 340 503 407 503 l 407 503 q 490 503 550 470 q 610 437 643 384 q 676 330 676 268 l 676 268 q 676 210 648 162 q 620 113 573 85 q 526 56 467 56 l 467 56 q 426 56 411 80 q 396 104 406 147 z m 313 118 l 313 118 q 327 118 345 132 q 363 146 380 169 q 397 191 411 219 q 424 247 430 275 l 430 275 q 434 301 429 320 q 423 338 406 337 l 406 337 q 382 336 360 315 q 337 294 321 262 q 304 230 296 194 l 296 194 q 290 169 292 144 q 294 118 313 118 z"},"A":{"ha":716,"x_min":0,"x_max":716,"o":"m 481 229 l 171 229 l 186 257 l 474 257 l 481 229 z m 717 12 l 717 12 q 722 12 722 6 q 722 0 717 0 l 717 0 q 687 0 655 2 q 622 4 592 4 l 592 4 q 558 4 533 2 q 508 0 477 0 l 477 0 q 473 0 473 6 q 473 12 477 12 l 477 12 q 518 12 525 29 q 531 45 506 94 l 506 94 l 303 495 l 352 581 l 153 142 q 126 82 152 47 q 178 12 234 12 l 234 12 q 239 12 239 6 q 239 0 234 0 l 234 0 q 204 0 179 2 q 154 4 116 4 l 116 4 q 77 4 54 2 q 30 0 -4 0 l -4 0 q -8 0 -8 6 q -8 12 -4 12 l -4 12 q 23 12 43 24 q 62 35 82 66 q 101 96 126 152 l 126 152 l 343 629 q 344 632 352 633 q 360 633 361 629 l 361 629 l 611 137 q 635 90 653 63 q 670 35 686 24 q 701 12 717 12 z"},"B":{"ha":595,"x_min":0,"x_max":595,"o":"m 306 335 l 306 335 l 317 353 q 386 353 437 331 q 487 309 515 271 q 543 232 543 181 l 543 181 q 543 129 513 87 q 483 45 431 21 q 378 -4 312 -4 l 312 -4 q 285 -4 244 -1 q 202 2 168 2 l 168 2 q 132 2 100 1 q 67 0 41 0 l 41 0 q 38 0 38 6 q 38 12 41 12 l 41 12 q 69 12 85 17 q 100 22 107 37 q 113 52 113 81 l 113 81 l 113 544 q 113 573 107 588 q 101 602 86 608 q 70 613 42 613 l 42 613 q 40 613 40 619 q 40 625 42 625 l 42 625 q 68 625 100 624 q 132 622 168 622 l 168 622 q 197 622 228 625 q 259 628 291 628 l 291 628 q 351 628 394 614 q 436 599 459 571 q 482 542 482 499 l 482 499 q 482 444 438 399 q 394 353 306 335 z m 276 606 l 276 606 q 257 606 246 600 q 234 594 230 581 q 225 567 225 542 l 225 542 l 225 346 l 188 353 q 221 352 242 352 q 263 351 265 351 l 265 351 q 319 351 346 392 q 373 432 373 490 l 373 490 q 373 528 362 554 q 350 580 329 593 q 307 606 276 606 z m 295 21 l 295 21 q 364 21 395 57 q 426 92 426 157 l 426 157 q 426 231 391 278 q 355 324 277 324 l 277 324 q 267 324 243 324 q 219 323 192 318 l 192 318 l 225 330 l 225 81 q 225 61 230 48 q 234 34 249 28 q 264 21 295 21 z"},"C":{"ha":681,"x_min":0,"x_max":681,"o":"m 427 636 l 427 636 q 457 636 490 633 q 522 630 551 624 q 580 618 600 609 l 600 609 q 609 606 612 602 q 614 597 615 586 l 615 586 l 628 447 q 628 444 623 443 q 618 442 616 446 l 616 446 q 588 527 537 571 q 485 615 411 615 l 411 615 q 343 615 290 579 q 236 542 206 475 q 175 408 175 315 l 175 315 q 175 245 193 189 q 211 132 244 92 q 277 52 322 31 q 367 9 421 9 l 421 9 q 492 9 539 48 q 585 86 626 170 l 626 170 q 628 173 633 172 q 637 171 637 168 l 637 168 l 622 44 q 621 32 619 29 q 616 25 607 21 l 607 21 q 559 4 512 -4 q 464 -12 421 -12 l 421 -12 q 313 -12 229 29 q 145 69 97 142 q 49 214 49 308 l 49 308 q 49 380 78 441 q 106 501 158 545 q 209 588 278 612 q 347 636 427 636 z"},"D":{"ha":705,"x_min":0,"x_max":705,"o":"m 326 -4 l 326 -4 q 294 -4 246 -1 q 198 2 158 2 l 158 2 q 122 2 89 1 q 56 0 30 0 l 30 0 q 28 0 28 6 q 28 12 30 12 l 30 12 q 61 12 77 17 q 92 22 98 37 q 103 52 103 81 l 103 81 l 103 544 q 103 573 98 588 q 93 602 78 608 q 62 613 32 613 l 32 613 q 29 613 29 619 q 29 625 32 625 l 32 625 q 58 625 90 624 q 122 622 159 622 l 159 622 q 195 622 238 625 q 281 627 312 627 l 312 627 q 416 627 493 587 q 570 547 613 478 q 656 409 656 323 l 656 323 q 656 248 630 188 q 604 127 558 85 q 512 42 453 19 q 393 -4 326 -4 z m 316 19 l 316 19 q 379 19 428 52 q 477 84 505 147 q 533 210 533 301 l 533 301 q 533 386 507 455 q 481 524 434 565 q 387 605 322 605 l 322 605 q 264 605 239 594 q 214 583 214 542 l 214 542 l 214 92 q 214 55 234 37 q 253 19 316 19 z"},"E":{"ha":552,"x_min":0,"x_max":552,"o":"m 483 0 l 483 0 l 41 0 q 38 0 38 6 q 38 12 41 12 l 41 12 q 72 12 87 17 q 102 22 107 37 q 112 52 112 81 l 112 81 l 112 544 q 112 573 107 588 q 102 602 87 608 q 72 613 41 613 l 41 613 q 38 613 38 619 q 38 625 41 625 l 41 625 l 465 625 q 475 625 475 616 l 475 616 l 477 483 q 477 481 472 480 q 467 479 465 482 l 465 482 q 449 541 411 569 q 373 596 311 596 l 311 596 l 281 596 q 261 596 248 591 q 235 585 229 573 q 223 561 223 543 l 223 543 l 223 85 q 223 66 228 53 q 233 40 243 34 q 253 28 269 28 l 269 28 l 302 28 q 380 28 427 60 q 474 92 496 159 l 496 159 q 497 162 503 161 q 508 159 508 157 l 508 157 q 504 128 501 89 q 498 49 498 15 l 498 15 q 498 0 483 0 z m 427 223 l 427 223 q 427 264 396 288 q 365 311 305 311 l 305 311 l 170 311 l 170 339 l 306 339 q 365 339 396 360 q 426 380 426 415 l 426 415 q 426 418 432 418 q 437 418 437 415 l 437 415 q 437 382 437 364 q 436 345 436 325 l 436 325 q 436 300 438 276 q 439 252 439 223 l 439 223 q 439 221 433 221 q 427 221 427 223 z"},"F":{"ha":522,"x_min":0,"x_max":522,"o":"m 34 0 l 34 0 q 31 0 31 6 q 31 12 34 12 l 34 12 q 68 12 85 17 q 101 22 107 37 q 112 52 112 81 l 112 81 l 112 544 q 112 573 107 588 q 102 602 87 608 q 72 613 41 613 l 41 613 q 38 613 38 619 q 38 625 41 625 l 41 625 l 465 625 q 475 625 475 616 l 475 616 l 477 483 q 477 481 472 480 q 467 479 465 482 l 465 482 q 449 541 411 569 q 373 596 311 596 l 311 596 l 281 596 q 251 596 237 583 q 223 570 223 543 l 223 543 l 223 85 q 223 55 231 40 q 239 24 262 18 q 285 12 330 12 l 330 12 q 332 12 332 6 q 332 0 330 0 l 330 0 q 296 0 257 1 q 217 2 164 2 l 164 2 q 128 2 94 1 q 60 0 34 0 z m 415 212 l 415 212 q 415 252 384 276 q 353 299 294 299 l 294 299 l 170 299 l 170 327 l 295 327 q 354 327 384 348 q 414 369 414 404 l 414 404 q 414 406 420 406 q 426 406 426 404 l 426 404 q 426 370 426 352 q 425 333 425 313 l 425 313 q 425 288 426 264 q 427 240 427 212 l 427 212 q 427 209 421 209 q 415 209 415 212 z"},"G":{"ha":731,"x_min":0,"x_max":731,"o":"m 421 -12 l 421 -12 q 333 -12 264 13 q 195 38 147 82 q 99 126 74 184 q 49 242 49 308 l 49 308 q 49 381 78 441 q 107 501 160 545 q 213 588 284 612 q 355 636 439 636 l 439 636 q 486 636 534 629 q 582 622 612 609 l 612 609 q 623 605 625 603 q 626 600 627 586 l 627 586 l 640 447 q 640 444 635 443 q 630 442 628 446 l 628 446 q 621 465 604 494 q 586 522 558 550 q 530 577 491 596 q 452 615 401 615 l 401 615 q 337 615 285 581 q 232 546 201 482 q 170 418 170 329 l 170 329 q 170 257 191 198 q 211 139 249 96 q 286 52 336 29 q 386 5 446 5 l 446 5 q 484 5 507 14 q 530 23 541 49 q 551 75 551 126 l 551 126 q 551 174 546 197 q 540 219 519 226 q 498 233 451 233 l 451 233 q 445 233 445 241 q 445 249 450 249 l 450 249 q 520 245 576 245 q 632 244 694 247 l 694 247 q 698 247 699 240 q 699 233 694 233 l 694 233 q 677 234 669 227 q 661 219 659 194 q 657 169 657 116 l 657 116 q 657 83 659 67 q 661 51 663 44 q 664 36 664 28 l 664 28 q 664 22 662 20 q 660 18 653 16 l 653 16 q 598 4 538 -4 q 477 -12 421 -12 z"},"H":{"ha":764,"x_min":0,"x_max":764,"o":"m 543 81 l 543 542 q 543 571 538 586 q 532 601 514 607 q 496 613 460 613 l 460 613 q 457 613 457 619 q 457 625 460 625 l 460 625 q 486 625 520 624 q 553 622 599 622 l 599 622 q 635 622 671 624 q 706 625 732 625 l 732 625 q 735 625 735 619 q 735 613 732 613 l 732 613 q 699 613 682 608 q 665 602 660 588 q 654 573 654 544 l 654 544 l 654 81 q 654 52 660 37 q 665 22 682 17 q 699 12 732 12 l 732 12 q 735 12 735 6 q 735 0 732 0 l 732 0 q 706 0 671 1 q 635 2 599 2 l 599 2 q 553 2 520 1 q 486 0 460 0 l 460 0 q 457 0 457 6 q 457 12 460 12 l 460 12 q 496 12 514 17 q 532 22 538 37 q 543 52 543 81 l 543 81 z m 594 311 l 161 311 l 161 339 l 594 339 l 594 311 z m 109 81 l 109 81 l 109 544 q 109 573 104 588 q 98 602 82 608 q 65 613 32 613 l 32 613 q 29 613 29 619 q 29 625 32 625 l 32 625 q 58 625 91 624 q 124 622 160 622 l 160 622 q 206 622 241 624 q 275 625 303 625 l 303 625 q 305 625 305 619 q 305 613 303 613 l 303 613 q 268 613 250 607 q 232 601 226 586 q 220 571 220 542 l 220 542 l 220 81 q 220 52 226 37 q 232 22 250 17 q 268 12 303 12 l 303 12 q 305 12 305 6 q 305 0 303 0 l 303 0 q 274 0 240 1 q 206 2 160 2 l 160 2 q 124 2 90 1 q 56 0 30 0 l 30 0 q 28 0 28 6 q 28 12 30 12 l 30 12 q 64 12 81 17 q 97 22 103 37 q 109 52 109 81 z"},"I":{"ha":342,"x_min":0,"x_max":342,"o":"m 227 542 l 227 81 q 227 52 232 37 q 237 22 252 17 q 267 12 298 12 l 298 12 q 301 12 301 6 q 301 0 298 0 l 298 0 q 272 0 240 1 q 208 2 170 2 l 170 2 q 134 2 101 1 q 68 0 42 0 l 42 0 q 40 0 40 6 q 40 12 42 12 l 42 12 q 73 12 89 17 q 104 22 110 37 q 115 52 115 81 l 115 81 l 115 544 q 115 573 110 588 q 104 602 89 608 q 73 613 42 613 l 42 613 q 40 613 40 619 q 40 625 42 625 l 42 625 q 68 625 101 624 q 134 622 170 622 l 170 622 q 208 622 241 624 q 273 625 298 625 l 298 625 q 301 625 301 619 q 301 613 298 613 l 298 613 q 268 613 253 607 q 237 601 232 586 q 227 571 227 542 l 227 542 z"},"J":{"ha":339,"x_min":0,"x_max":339,"o":"m 298 625 l 298 625 q 301 625 301 619 q 301 613 298 613 l 298 613 q 273 613 260 607 q 247 601 243 586 q 239 571 239 542 l 239 542 l 239 -4 q 239 -116 184 -179 q 128 -242 29 -242 l 29 -242 q -8 -242 -32 -226 q -57 -211 -57 -182 l -57 -182 q -57 -164 -45 -147 q -33 -131 -5 -131 l -5 -131 q 19 -131 32 -144 q 45 -158 53 -176 q 60 -194 67 -207 q 73 -221 85 -221 l 85 -221 q 106 -221 116 -187 q 126 -154 126 -74 l 126 -74 l 126 544 q 126 573 120 588 q 114 602 96 608 q 78 613 42 613 l 42 613 q 40 613 40 619 q 40 625 42 625 l 42 625 q 73 625 108 624 q 143 622 181 622 l 181 622 q 216 622 246 624 q 275 625 298 625 z"},"K":{"ha":655,"x_min":0,"x_max":655,"o":"m 103 81 l 103 81 l 103 544 q 103 573 98 588 q 93 602 78 608 q 62 613 32 613 l 32 613 q 29 613 29 619 q 29 625 32 625 l 32 625 q 58 625 90 624 q 122 622 158 622 l 158 622 q 196 622 228 624 q 260 625 285 625 l 285 625 q 288 625 288 619 q 288 613 285 613 l 285 613 q 255 613 240 607 q 225 601 220 586 q 214 571 214 542 l 214 542 l 214 81 q 214 52 219 37 q 224 22 239 17 q 254 12 285 12 l 285 12 q 289 12 289 6 q 289 0 285 0 l 285 0 q 259 0 228 1 q 196 2 158 2 l 158 2 q 122 2 89 1 q 56 0 30 0 l 30 0 q 28 0 28 6 q 28 12 30 12 l 30 12 q 61 12 77 17 q 92 22 98 37 q 103 52 103 81 z m 367 145 l 367 145 l 230 330 l 310 407 l 463 201 q 502 146 529 111 q 556 75 575 55 q 593 34 607 25 q 621 16 635 14 q 648 12 664 12 l 664 12 q 667 12 667 6 q 667 0 664 0 l 664 0 q 620 0 593 0 q 566 0 552 0 l 552 0 q 537 0 526 -1 q 515 -2 507 -2 l 507 -2 q 494 -2 484 3 q 474 8 461 23 q 447 38 425 67 q 403 96 367 145 z m 171 255 l 144 258 l 402 522 q 439 559 430 586 q 420 613 370 613 l 370 613 q 367 613 367 619 q 367 625 370 625 l 370 625 q 397 625 425 624 q 453 622 499 622 l 499 622 q 547 622 575 624 q 603 625 629 625 l 629 625 q 632 625 632 619 q 632 613 629 613 l 629 613 q 583 613 528 587 q 473 560 428 516 l 428 516 l 171 255 z"},"L":{"ha":545,"x_min":0,"x_max":545,"o":"m 213 543 l 213 543 l 213 85 q 213 61 217 49 q 221 36 234 32 q 246 28 270 28 l 270 28 l 304 28 q 382 28 439 70 q 496 112 515 182 l 515 182 q 516 185 521 184 q 526 183 526 180 l 526 180 q 523 147 520 101 q 517 54 517 15 l 517 15 q 517 0 502 0 l 502 0 l 30 0 q 28 0 28 6 q 28 12 30 12 l 30 12 q 61 12 76 17 q 91 22 97 37 q 102 52 102 81 l 102 81 l 102 544 q 102 573 97 588 q 91 602 76 608 q 61 613 30 613 l 30 613 q 28 613 28 619 q 28 625 30 625 l 30 625 q 54 625 88 624 q 121 622 157 622 l 157 622 q 195 622 227 624 q 259 625 284 625 l 284 625 q 287 625 287 619 q 287 613 284 613 l 284 613 q 254 613 239 608 q 223 602 218 587 q 213 572 213 543 z"},"M":{"ha":857,"x_min":0,"x_max":857,"o":"m 117 127 l 117 127 l 127 602 l 156 600 l 145 127 q 144 74 167 43 q 189 12 230 12 l 230 12 q 233 12 233 6 q 233 0 230 0 l 230 0 q 208 0 185 1 q 162 2 133 2 l 133 2 q 101 2 75 1 q 49 0 27 0 l 27 0 q 24 0 24 6 q 24 12 27 12 l 27 12 q 68 12 92 43 q 116 74 117 127 z m 833 12 l 833 12 q 835 12 835 6 q 835 0 833 0 l 833 0 q 807 0 774 1 q 741 2 705 2 l 705 2 q 668 2 636 1 q 604 0 578 0 l 578 0 q 575 0 575 6 q 575 12 578 12 l 578 12 q 625 12 639 25 q 652 38 649 81 l 649 81 l 626 525 l 677 605 l 422 7 q 421 3 415 3 q 408 3 406 7 l 406 7 l 125 542 q 87 613 34 613 l 34 613 q 31 613 31 619 q 31 625 34 625 l 34 625 q 55 625 78 624 q 101 623 117 623 l 117 623 q 143 623 163 624 q 182 625 193 625 l 193 625 q 207 625 215 615 q 222 605 239 573 l 239 573 l 463 153 l 413 63 l 647 600 q 653 614 660 620 q 666 625 677 625 l 677 625 q 687 625 698 624 q 709 623 724 623 l 724 623 q 756 623 779 624 q 801 625 823 625 l 823 625 q 826 625 826 619 q 826 613 823 613 l 823 613 q 777 613 756 594 q 734 575 736 535 l 736 535 l 760 81 q 762 52 768 37 q 773 22 788 17 q 803 12 833 12 z"},"N":{"ha":735,"x_min":0,"x_max":735,"o":"m 127 127 l 127 127 l 127 602 l 157 600 l 157 127 q 157 74 179 43 q 201 12 240 12 l 240 12 q 242 12 242 6 q 242 0 240 0 l 240 0 q 218 0 195 1 q 171 2 143 2 l 143 2 q 113 2 85 1 q 56 0 32 0 l 32 0 q 29 0 29 6 q 29 12 32 12 l 32 12 q 76 12 102 43 q 127 74 127 127 z m 629 150 l 637 -15 q 637 -18 633 -18 q 628 -19 626 -18 l 626 -18 l 133 543 q 97 584 72 599 q 47 613 22 613 l 22 613 q 20 613 20 619 q 20 625 22 625 l 22 625 q 42 625 63 624 q 84 623 102 623 l 102 623 q 138 623 167 624 q 196 625 212 625 l 212 625 q 225 625 232 614 q 238 602 262 573 l 262 573 l 629 150 z m 637 497 l 637 497 l 637 -15 l 608 15 l 608 497 q 608 550 586 582 q 564 613 525 613 l 525 613 q 523 613 523 619 q 523 625 525 625 l 525 625 q 547 625 571 624 q 594 622 622 622 l 622 622 q 649 622 675 624 q 701 625 723 625 l 723 625 q 725 625 725 619 q 725 613 723 613 l 723 613 q 683 613 660 582 q 637 550 637 497 z"},"O":{"ha":766,"x_min":0,"x_max":766,"o":"m 366 -12 l 366 -12 q 294 -12 236 14 q 177 39 136 84 q 94 129 72 188 q 49 246 49 312 l 49 312 q 49 393 81 454 q 112 515 164 556 q 216 596 278 616 q 340 636 401 636 l 401 636 q 475 636 534 610 q 592 583 633 538 q 674 493 696 436 q 717 379 717 319 l 717 319 q 717 249 689 189 q 661 129 613 84 q 564 39 501 14 q 437 -12 366 -12 z m 399 13 l 399 13 q 455 13 499 45 q 543 77 569 139 q 594 201 594 290 l 594 290 q 594 382 566 454 q 538 526 486 568 q 434 609 361 609 l 361 609 q 270 609 221 540 q 172 471 172 349 l 172 349 q 172 276 189 215 q 206 153 237 108 q 267 62 309 38 q 350 13 399 13 z"},"P":{"ha":553,"x_min":0,"x_max":553,"o":"m 216 542 l 216 85 q 216 55 223 40 q 229 24 250 18 q 271 12 312 12 l 312 12 q 315 12 315 6 q 315 0 312 0 l 312 0 q 280 0 243 1 q 205 2 161 2 l 161 2 q 125 2 93 1 q 60 0 34 0 l 34 0 q 31 0 31 6 q 31 12 34 12 l 34 12 q 65 12 80 17 q 95 22 100 37 q 105 52 105 81 l 105 81 l 105 544 q 105 573 100 588 q 95 602 80 608 q 65 613 34 613 l 34 613 q 31 613 31 619 q 31 625 34 625 l 34 625 q 60 625 92 624 q 124 622 160 622 l 160 622 q 184 622 223 625 q 262 628 296 628 l 296 628 q 359 628 408 612 q 456 595 485 559 q 514 523 516 464 l 516 464 q 518 413 500 375 q 481 337 449 312 q 416 287 377 275 q 337 262 298 262 l 298 262 q 288 262 276 263 q 263 264 251 267 l 251 267 q 248 268 249 275 q 250 281 254 280 l 254 280 q 262 278 272 277 q 282 276 288 276 l 288 276 q 317 276 341 294 q 365 312 380 349 q 395 386 395 441 l 395 441 q 395 494 380 531 q 365 567 336 587 q 307 606 264 606 l 264 606 q 246 606 236 601 q 225 596 221 582 q 216 568 216 542 l 216 542 z"},"Q":{"ha":766,"x_min":0,"x_max":766,"o":"m 359 2 l 491 12 q 517 -45 554 -88 q 591 -132 632 -156 q 673 -181 710 -181 l 710 -181 q 721 -181 730 -180 q 738 -180 745 -179 l 745 -179 q 748 -178 750 -183 q 751 -188 749 -189 l 749 -189 q 731 -194 711 -197 q 691 -201 668 -201 l 668 -201 q 617 -201 561 -177 q 505 -154 453 -109 q 400 -64 359 2 l 359 2 z m 366 -12 l 366 -12 q 294 -12 236 14 q 177 39 136 84 q 94 129 72 188 q 49 246 49 312 l 49 312 q 49 393 81 454 q 112 515 164 556 q 216 596 278 616 q 340 636 401 636 l 401 636 q 475 636 534 610 q 592 583 633 538 q 674 493 696 436 q 717 379 717 319 l 717 319 q 717 249 689 189 q 661 129 613 84 q 564 39 501 14 q 437 -12 366 -12 z m 399 13 l 399 13 q 455 13 499 45 q 543 77 569 139 q 594 201 594 290 l 594 290 q 594 382 566 454 q 538 526 486 568 q 434 609 361 609 l 361 609 q 270 609 221 540 q 172 471 172 349 l 172 349 q 172 276 189 215 q 206 153 237 108 q 267 62 309 38 q 350 13 399 13 z"},"R":{"ha":698,"x_min":0,"x_max":698,"o":"m 530 0 l 530 0 q 515 0 482 38 q 448 75 401 146 q 354 217 295 316 l 295 316 l 387 344 q 467 223 524 150 q 580 77 624 45 q 668 12 708 12 l 708 12 q 710 12 710 6 q 710 0 708 0 l 708 0 q 638 0 594 0 q 550 0 530 0 z m 315 628 l 315 628 q 407 628 457 595 q 506 561 506 501 l 506 501 q 506 442 473 397 q 440 351 389 326 q 337 301 280 301 l 280 301 q 266 301 252 301 q 237 301 225 302 l 225 302 l 225 81 q 225 52 230 37 q 235 22 250 17 q 265 12 296 12 l 296 12 q 298 12 298 6 q 298 0 296 0 l 296 0 q 270 0 238 1 q 206 2 168 2 l 168 2 q 132 2 100 1 q 67 0 41 0 l 41 0 q 38 0 38 6 q 38 12 41 12 l 41 12 q 72 12 87 17 q 102 22 108 37 q 113 52 113 81 l 113 81 l 113 544 q 113 573 108 588 q 103 602 88 608 q 73 613 42 613 l 42 613 q 40 613 40 619 q 40 625 42 625 l 42 625 q 68 625 100 624 q 132 622 168 622 l 168 622 q 201 622 241 625 q 280 628 315 628 z m 392 463 l 392 463 q 392 522 380 553 q 368 584 347 596 q 326 607 299 607 l 299 607 q 259 607 242 592 q 225 577 225 542 l 225 542 l 225 330 q 239 328 255 327 q 271 326 283 326 l 283 326 q 342 326 367 359 q 392 391 392 463 z"},"S":{"ha":515,"x_min":0,"x_max":515,"o":"m 174 524 l 174 524 q 174 486 194 458 q 213 429 245 406 q 276 383 311 360 l 311 360 q 349 336 384 310 q 418 283 441 249 q 463 214 463 166 l 463 166 q 463 113 435 73 q 406 33 358 11 q 309 -12 247 -12 l 247 -12 q 217 -12 185 -6 q 152 0 126 9 q 99 18 87 28 l 87 28 q 83 31 80 35 q 77 38 77 47 l 77 47 l 74 206 q 73 211 79 212 q 84 212 85 208 l 85 208 q 100 177 118 143 q 136 108 159 79 q 181 50 209 32 q 237 13 273 13 l 273 13 q 296 13 317 21 q 338 29 352 50 q 365 71 365 108 l 365 108 q 365 155 344 189 q 323 222 290 248 q 257 273 221 296 l 221 296 q 186 319 154 344 q 122 368 102 400 q 82 431 82 475 l 82 475 q 82 531 114 567 q 145 602 194 619 q 242 636 292 636 l 292 636 q 328 636 364 630 q 400 623 421 614 l 421 614 q 431 610 434 605 q 436 600 436 594 l 436 594 l 436 447 q 436 444 432 443 q 427 441 425 444 l 425 444 q 419 456 408 484 q 397 511 379 541 q 361 571 333 593 q 305 614 265 614 l 265 614 q 240 614 220 604 q 199 594 187 575 q 174 555 174 524 z"},"T":{"ha":643,"x_min":0,"x_max":643,"o":"m 222 602 l 222 602 q 161 602 119 562 q 76 521 51 447 l 51 447 q 50 444 45 445 q 40 445 40 448 l 40 448 q 42 462 44 488 q 46 513 49 543 q 51 573 53 601 q 54 629 54 647 l 54 647 q 54 652 60 652 q 65 652 65 647 l 65 647 q 65 637 76 633 q 86 628 100 627 q 113 625 122 625 l 122 625 q 208 622 323 622 l 323 622 q 393 622 435 624 q 477 625 516 625 l 516 625 q 552 625 571 630 q 589 634 594 650 l 594 650 q 595 654 601 654 q 606 654 606 650 l 606 650 q 604 634 603 606 q 601 577 600 546 q 598 514 597 488 q 596 461 596 448 l 596 448 q 596 445 591 445 q 586 445 585 448 l 585 448 q 570 527 529 565 q 487 602 428 602 l 428 602 q 408 602 398 597 q 387 591 384 578 q 380 565 380 542 l 380 542 l 380 81 q 380 52 386 37 q 392 22 410 17 q 427 12 463 12 l 463 12 q 466 12 466 6 q 466 0 463 0 l 463 0 q 435 0 400 1 q 365 2 323 2 l 323 2 q 283 2 248 1 q 213 0 184 0 l 184 0 q 181 0 181 6 q 181 12 184 12 l 184 12 q 219 12 237 17 q 255 22 262 37 q 268 52 268 81 l 268 81 l 268 544 q 268 566 265 579 q 261 591 251 597 q 241 602 222 602 z"},"U":{"ha":703,"x_min":0,"x_max":703,"o":"m 571 218 l 571 497 q 571 550 547 582 q 522 613 478 613 l 478 613 q 476 613 476 619 q 476 625 478 625 l 478 625 q 503 625 530 624 q 556 622 587 622 l 587 622 q 614 622 640 624 q 666 625 688 625 l 688 625 q 690 625 690 619 q 690 613 688 613 l 688 613 q 648 613 627 582 q 605 550 605 497 l 605 497 l 605 219 q 605 148 574 96 q 543 43 487 15 q 431 -14 356 -14 l 356 -14 q 283 -14 226 14 q 168 42 136 95 q 103 147 103 221 l 103 221 l 103 544 q 103 573 98 588 q 93 602 78 608 q 62 613 32 613 l 32 613 q 29 613 29 619 q 29 625 32 625 l 32 625 q 58 625 90 624 q 122 622 158 622 l 158 622 q 196 622 228 624 q 260 625 285 625 l 285 625 q 288 625 288 619 q 288 613 285 613 l 285 613 q 255 613 240 607 q 225 601 220 586 q 214 571 214 542 l 214 542 l 214 256 q 214 133 263 78 q 312 23 394 23 l 394 23 q 477 23 524 74 q 571 124 571 218 l 571 218 z"},"V":{"ha":660,"x_min":0,"x_max":660,"o":"m 665 625 l 665 625 q 668 625 668 619 q 668 613 665 613 l 665 613 q 628 613 596 581 q 563 549 543 495 l 543 495 l 358 1 q 357 -3 348 -3 q 338 -3 336 1 l 336 1 l 81 542 q 64 577 46 595 q 28 613 5 613 l 5 613 q 2 613 2 619 q 2 625 5 625 l 5 625 q 17 625 24 624 q 30 623 42 623 q 53 622 78 622 l 78 622 q 134 622 169 623 q 204 623 226 624 q 248 625 264 625 l 264 625 q 267 625 267 619 q 267 613 264 613 l 264 613 q 221 613 207 589 q 193 565 212 524 l 212 524 l 394 136 l 347 54 l 515 498 q 533 547 518 580 q 502 613 453 613 l 453 613 q 450 613 450 619 q 450 625 453 625 l 453 625 q 482 625 508 624 q 534 622 577 622 l 577 622 q 605 622 623 624 q 640 625 665 625 z"},"W":{"ha":911,"x_min":0,"x_max":911,"o":"m 462 359 l 481 331 l 358 1 q 357 -3 348 -3 q 338 -3 336 1 l 336 1 l 81 542 q 67 572 57 587 q 47 602 36 608 q 24 613 5 613 l 5 613 q 2 613 2 619 q 2 625 5 625 l 5 625 q 17 625 24 624 q 30 623 42 623 q 53 622 78 622 l 78 622 q 123 622 150 623 q 176 623 193 624 q 210 625 223 625 l 223 625 q 226 625 226 619 q 226 613 223 613 l 223 613 q 182 613 178 597 q 174 580 200 524 l 200 524 l 389 123 l 347 54 l 462 359 z m 917 625 l 917 625 q 919 625 919 619 q 919 613 917 613 l 917 613 q 880 613 848 582 q 815 550 794 495 l 794 495 l 609 1 q 608 -3 599 -3 q 589 -3 587 1 l 587 1 l 332 542 q 316 575 301 594 q 286 613 268 613 l 268 613 q 265 613 265 619 q 265 625 268 625 l 268 625 q 278 625 284 624 q 290 623 300 623 q 309 622 330 622 l 330 622 q 386 622 411 624 q 435 625 451 625 l 451 625 q 454 625 454 619 q 454 613 451 613 l 451 613 q 424 613 425 597 q 425 580 451 524 l 451 524 l 642 123 l 599 54 l 761 488 q 781 542 768 578 q 754 613 716 613 l 716 613 q 713 613 713 619 q 713 625 716 625 l 716 625 q 742 625 767 624 q 791 622 828 622 l 828 622 q 856 622 874 624 q 892 625 917 625 z m 487 331 l 468 359 l 520 498 q 543 557 543 585 q 542 613 517 613 l 517 613 q 514 613 514 619 q 514 625 517 625 l 517 625 q 527 625 530 624 q 533 623 543 623 q 552 622 582 622 l 582 622 q 607 622 623 624 q 638 625 660 625 l 660 625 q 662 625 662 619 q 662 613 660 613 l 660 613 q 626 613 599 584 q 572 555 549 495 l 549 495 l 487 331 z"},"X":{"ha":647,"x_min":0,"x_max":647,"o":"m 404 0 l 404 0 q 401 0 401 6 q 401 12 404 12 l 404 12 q 423 12 434 20 q 444 27 428 51 l 428 51 l 117 533 q 89 577 65 595 q 40 613 12 613 l 12 613 q 9 613 9 619 q 9 625 12 625 l 12 625 q 32 625 55 624 q 77 622 97 622 l 97 622 q 140 622 177 624 q 213 625 241 625 l 241 625 q 243 625 243 619 q 243 613 241 613 l 241 613 q 222 613 211 606 q 200 599 216 573 l 216 573 l 533 83 q 558 46 584 29 q 610 12 644 12 l 644 12 q 647 12 647 6 q 647 0 644 0 l 644 0 q 622 0 596 1 q 569 2 539 2 l 539 2 q 496 2 464 1 q 432 0 404 0 z m 5 0 l 5 0 q 2 0 2 6 q 2 12 5 12 l 5 12 q 34 12 79 43 q 123 74 175 146 l 175 146 l 298 312 l 316 298 l 205 140 q 163 81 166 47 q 169 12 218 12 l 218 12 q 220 12 220 6 q 220 0 218 0 l 218 0 q 189 0 163 1 q 137 2 94 2 l 94 2 q 66 2 49 1 q 31 0 5 0 z m 457 478 l 335 312 l 317 326 l 428 484 q 470 544 467 579 q 464 613 415 613 l 415 613 q 413 613 413 619 q 413 625 415 625 l 415 625 q 444 625 470 624 q 496 622 539 622 l 539 622 q 568 622 586 624 q 603 625 628 625 l 628 625 q 631 625 631 619 q 631 613 628 613 l 628 613 q 599 613 555 582 q 510 550 457 478 l 457 478 z"},"Y":{"ha":619,"x_min":0,"x_max":619,"o":"m 339 261 l 318 278 l 441 487 q 474 543 467 578 q 459 613 412 613 l 412 613 q 409 613 409 619 q 409 625 412 625 l 412 625 q 444 625 472 624 q 500 622 547 622 l 547 622 q 572 622 588 624 q 603 625 625 625 l 625 625 q 627 625 627 619 q 627 613 625 613 l 625 613 q 605 613 577 596 q 549 578 521 548 q 493 518 469 478 l 469 478 l 339 261 z m 356 319 l 260 274 l 108 510 q 68 572 45 593 q 21 613 5 613 l 5 613 q 2 613 2 619 q 2 625 5 625 l 5 625 q 20 625 36 624 q 52 622 67 622 l 67 622 q 95 622 127 623 q 159 623 188 624 q 216 625 234 625 l 234 625 q 236 625 236 619 q 236 613 234 613 l 234 613 q 205 613 200 593 q 194 573 212 546 l 212 546 l 356 319 z m 254 81 l 254 310 l 365 319 l 365 81 q 365 52 370 37 q 375 22 390 17 q 405 12 436 12 l 436 12 q 439 12 439 6 q 439 0 436 0 l 436 0 q 410 0 379 1 q 347 2 309 2 l 309 2 q 273 2 240 1 q 207 0 181 0 l 181 0 q 179 0 179 6 q 179 12 181 12 l 181 12 q 212 12 228 17 q 243 22 249 37 q 254 52 254 81 l 254 81 z"},"Z":{"ha":605,"x_min":0,"x_max":605,"o":"m 60 13 l 60 13 l 411 600 q 414 605 414 607 q 413 608 406 608 l 406 608 q 344 608 297 606 q 249 603 214 596 q 178 589 152 575 q 126 560 106 537 q 86 513 69 478 l 69 478 q 68 476 62 477 q 56 478 57 481 l 57 481 l 97 655 q 98 657 104 656 q 110 655 109 653 l 109 653 q 106 635 117 630 q 128 625 166 625 l 166 625 q 226 625 313 625 q 400 625 531 625 l 531 625 q 536 625 539 620 q 541 615 538 612 l 538 612 l 192 27 q 188 22 189 21 q 190 19 196 19 l 196 19 q 261 19 314 19 q 367 19 398 19 l 398 19 q 435 19 469 38 q 502 56 526 87 q 550 117 556 153 l 556 153 q 557 156 562 156 q 567 156 567 153 l 567 153 l 553 8 q 553 5 551 2 q 549 -2 544 -2 l 544 -2 q 470 -1 388 0 q 305 0 223 0 q 140 0 65 0 l 65 0 q 61 0 59 5 q 57 9 60 13 z"},"[":{"ha":274,"x_min":0,"x_max":274,"o":"m 67 -106 l 67 -106 l 67 715 q 67 722 69 724 q 70 725 76 725 l 76 725 q 100 725 132 725 q 163 725 192 725 q 221 725 236 725 l 236 725 q 239 725 239 719 q 239 713 236 713 l 236 713 q 206 713 191 707 q 175 701 170 686 q 165 671 165 642 l 165 642 l 165 -34 q 165 -62 170 -77 q 175 -93 191 -99 q 206 -105 236 -105 l 236 -105 q 239 -105 239 -111 q 239 -117 236 -117 l 236 -117 q 221 -117 192 -117 q 163 -117 132 -117 q 100 -117 76 -117 l 76 -117 q 70 -117 69 -115 q 67 -113 67 -106 z"},"\\":{"ha":351,"x_min":0,"x_max":351,"o":"m 277 -165 l 277 -165 l 26 716 q 26 719 37 724 q 48 728 60 731 q 72 733 73 730 l 73 730 l 325 -152 q 326 -154 315 -158 q 303 -163 291 -165 q 279 -168 277 -165 z"},"]":{"ha":274,"x_min":0,"x_max":274,"o":"m 207 -106 l 207 -106 l 207 715 q 207 722 206 724 q 204 725 198 725 l 198 725 q 175 725 143 725 q 111 725 82 725 q 53 725 38 725 l 38 725 q 35 725 35 719 q 35 713 38 713 l 38 713 q 69 713 84 707 q 99 701 104 686 q 109 671 109 642 l 109 642 l 109 -34 q 109 -62 104 -77 q 99 -93 84 -99 q 69 -105 38 -105 l 38 -105 q 35 -105 35 -111 q 35 -117 38 -117 l 38 -117 q 53 -117 82 -117 q 111 -117 143 -117 q 175 -117 198 -117 l 198 -117 q 204 -117 206 -115 q 207 -113 207 -106 z"},"^":{"ha":392,"x_min":0,"x_max":392,"o":"m 207 629 l 333 380 q 335 378 331 376 q 326 373 324 375 l 324 375 l 196 509 l 68 375 q 65 373 61 376 q 57 378 58 380 l 58 380 l 185 629 q 186 634 196 634 q 206 634 207 629 l 207 629 z"},"_":{"ha":398,"x_min":0,"x_max":398,"o":"m 364 -81 l 34 -81 q 31 -81 30 -68 q 29 -56 30 -44 q 31 -32 33 -32 l 33 -32 l 364 -32 q 367 -32 368 -44 q 369 -56 368 -68 q 367 -81 364 -81 l 364 -81 z"},"`":{"ha":213,"x_min":0,"x_max":213,"o":"m 144 474 l 23 727 q 22 731 36 731 q 50 731 70 729 q 90 726 106 723 q 121 719 122 716 l 122 716 l 154 476 q 154 474 150 473 q 145 471 144 474 l 144 474 z"},"a":{"ha":421,"x_min":0,"x_max":421,"o":"m 422 43 l 319 -6 q 315 -8 309 -8 l 309 -8 q 291 -8 273 16 q 255 40 255 85 l 255 85 l 255 255 q 255 318 245 348 q 235 377 209 377 l 209 377 q 184 377 172 362 q 159 346 155 327 q 150 308 149 295 l 149 295 q 146 264 131 252 q 116 239 91 239 l 91 239 q 65 239 54 250 q 43 261 43 277 l 43 277 q 43 301 65 323 q 86 344 119 361 q 152 377 188 387 q 223 396 250 396 l 250 396 q 291 396 320 370 q 349 344 349 285 l 349 285 l 349 108 q 349 79 360 63 q 370 47 389 47 l 389 47 q 403 47 418 54 l 418 54 q 422 56 425 51 q 427 45 422 43 l 422 43 z m 127 -7 l 127 -7 q 83 -7 62 13 q 40 32 40 65 l 40 65 q 40 98 58 116 q 76 133 105 144 q 134 154 165 165 l 165 165 l 265 202 l 269 187 l 212 161 q 204 158 189 152 q 174 145 162 133 q 150 120 150 97 l 150 97 q 150 71 167 59 q 184 46 201 46 l 201 46 q 209 46 217 48 q 224 50 234 57 l 234 57 l 284 91 l 285 75 l 215 25 q 193 8 173 1 q 153 -7 127 -7 z"},"b":{"ha":516,"x_min":0,"x_max":516,"o":"m 268 -13 l 268 -13 q 225 -13 184 3 q 143 18 110 48 l 110 48 l 174 165 q 174 106 194 71 q 214 36 242 22 q 270 7 292 7 l 292 7 q 336 7 359 51 q 381 95 381 174 l 381 174 q 381 264 351 305 q 321 346 271 346 l 271 346 q 240 346 212 333 q 184 320 161 302 l 161 302 l 152 310 q 173 331 197 352 q 220 372 250 386 q 280 399 318 399 l 318 399 q 362 399 400 379 q 437 358 461 317 q 484 276 484 213 l 484 213 q 484 138 453 88 q 421 37 372 12 q 323 -13 268 -13 z m 174 56 l 36 -7 q 32 -8 30 -3 q 28 1 32 2 l 32 2 q 55 16 68 40 q 81 63 81 103 l 81 103 l 81 589 q 81 623 75 639 q 68 654 51 654 l 51 654 q 38 654 14 643 l 14 643 q 10 642 8 648 q 5 654 7 655 l 7 655 l 153 724 q 156 725 158 725 l 158 725 q 163 725 169 721 q 174 716 174 712 l 174 712 l 174 56 z"},"c":{"ha":425,"x_min":0,"x_max":425,"o":"m 234 -12 l 234 -12 q 165 -12 120 18 q 75 47 54 93 q 32 139 32 186 l 32 186 q 32 236 53 275 q 74 314 109 341 q 143 367 185 381 q 227 395 268 395 l 268 395 q 297 395 326 387 q 355 378 374 362 q 393 345 393 320 l 393 320 q 393 303 379 289 q 365 274 338 274 l 338 274 q 313 274 299 287 q 285 300 277 325 l 277 325 q 270 349 262 362 q 253 374 229 374 l 229 374 q 186 374 161 331 q 135 288 135 219 l 135 219 q 135 169 150 128 q 165 86 199 62 q 233 37 290 37 l 290 37 q 320 37 341 44 q 361 51 386 63 l 386 63 q 388 65 392 61 q 395 57 393 55 l 393 55 q 358 23 321 6 q 284 -12 234 -12 z"},"d":{"ha":510,"x_min":0,"x_max":510,"o":"m 189 -13 l 189 -13 q 146 -13 111 10 q 75 33 54 77 q 32 120 32 182 l 32 182 q 32 243 54 285 q 76 326 111 351 q 145 376 185 388 q 225 399 261 399 l 261 399 q 297 399 328 390 q 359 381 384 368 l 384 368 l 361 287 q 340 332 313 353 q 286 373 246 373 l 246 373 q 195 373 165 338 q 135 302 135 214 l 135 214 q 135 157 149 117 q 163 77 188 56 q 213 35 244 35 l 244 35 q 284 35 314 57 q 344 79 372 110 l 372 110 l 382 101 q 361 77 333 51 q 304 24 269 6 q 233 -13 189 -13 z m 433 712 l 433 712 l 433 116 q 433 82 440 68 q 446 54 461 54 l 461 54 q 468 54 479 57 q 489 60 502 65 l 502 65 q 505 67 508 62 q 511 56 509 54 l 509 54 l 371 -13 q 368 -14 366 -14 l 366 -14 q 356 -14 348 11 q 339 36 339 82 l 339 82 l 339 589 q 339 623 333 639 q 327 654 310 654 l 310 654 q 303 654 294 651 q 284 648 273 643 l 273 643 q 269 642 266 648 q 263 654 265 655 l 265 655 l 412 724 q 414 725 416 725 l 416 725 q 421 725 427 721 q 433 716 433 712 z"},"e":{"ha":418,"x_min":0,"x_max":418,"o":"m 235 -12 l 235 -12 q 170 -12 125 15 q 79 42 56 87 q 32 131 32 182 l 32 182 q 32 241 61 289 q 90 337 141 366 q 192 395 258 395 l 258 395 q 317 395 353 368 q 388 341 388 280 l 388 280 q 388 267 386 258 q 384 249 377 249 l 377 249 l 281 249 q 283 306 270 341 q 257 375 220 375 l 220 375 q 180 375 157 334 q 133 293 133 225 l 133 225 q 133 167 151 125 q 169 83 204 60 q 239 37 290 37 l 290 37 q 320 37 341 45 q 361 52 386 65 l 386 65 q 388 67 392 63 q 395 59 393 56 l 393 56 q 356 19 318 4 q 279 -12 235 -12 z m 316 249 l 98 248 l 97 267 l 316 271 l 316 249 z"},"f":{"ha":305,"x_min":0,"x_max":305,"o":"m 27 0 l 27 0 q 23 0 23 6 q 23 12 27 12 l 27 12 q 65 12 76 25 q 87 38 87 81 l 87 81 l 87 306 q 87 328 81 339 q 75 349 61 353 q 47 356 23 356 l 23 356 q 20 356 20 365 q 20 374 23 374 l 23 374 q 58 374 71 384 q 84 393 85 418 l 85 418 q 90 584 148 655 q 206 726 319 726 l 319 726 q 375 726 406 711 q 437 696 437 667 l 437 667 q 437 643 421 631 q 405 618 386 618 l 386 618 q 359 618 349 632 q 338 645 331 661 l 331 661 q 324 677 315 690 q 305 703 280 703 l 280 703 q 237 703 209 642 q 181 581 181 439 l 181 439 l 181 81 q 181 52 187 37 q 193 22 212 17 q 231 12 270 12 l 270 12 q 274 12 274 6 q 274 0 270 0 l 270 0 q 235 0 202 1 q 168 2 133 2 l 133 2 q 104 2 77 1 q 49 0 27 0 z m 288 335 l 288 335 q 249 344 214 348 q 178 351 138 351 l 138 351 l 138 377 q 176 377 213 380 q 250 383 291 387 l 291 387 q 294 387 296 380 q 298 372 298 363 l 298 363 q 298 353 295 344 q 291 334 288 335 z"},"g":{"ha":451,"x_min":0,"x_max":451,"o":"m 182 -282 l 182 -282 q 113 -282 69 -250 q 25 -219 25 -168 l 25 -168 q 25 -136 50 -100 q 74 -64 144 -21 l 144 -21 l 154 -32 q 142 -40 133 -51 q 124 -63 120 -79 q 115 -95 115 -116 l 115 -116 q 115 -161 134 -190 q 152 -220 181 -235 q 210 -250 242 -250 l 242 -250 q 292 -250 323 -218 q 353 -186 353 -131 l 353 -131 q 353 -86 334 -67 q 314 -48 280 -43 q 246 -39 201 -39 l 201 -39 q 167 -38 133 -33 q 99 -28 77 -11 q 54 5 54 40 l 54 40 q 54 75 79 108 q 103 141 157 167 l 157 167 l 166 161 q 146 149 136 135 q 126 120 126 99 l 126 99 q 126 71 142 59 q 157 47 185 45 q 213 42 250 41 l 250 41 q 284 41 317 39 q 349 36 376 26 q 403 16 419 -6 q 435 -28 435 -67 l 435 -67 q 435 -110 415 -148 q 395 -187 360 -217 q 325 -247 279 -264 q 233 -282 182 -282 z m 199 133 l 199 133 q 151 133 116 153 q 81 173 62 204 q 43 235 43 268 l 43 268 q 43 310 70 338 q 97 366 138 380 q 178 393 218 393 l 218 393 q 264 393 299 377 q 334 360 355 332 q 375 304 375 268 l 375 268 q 375 226 349 196 q 322 166 282 150 q 241 133 199 133 z m 225 151 l 225 151 q 245 151 261 171 q 277 191 277 240 l 277 240 q 277 286 263 316 q 248 345 227 360 q 205 374 185 374 l 185 374 q 161 374 151 354 q 140 334 140 298 l 140 298 q 140 255 153 222 q 165 189 185 170 q 204 151 225 151 z m 308 332 l 302 313 l 304 345 q 336 370 367 383 q 397 396 434 396 l 434 396 q 439 396 441 388 q 442 380 442 368 l 442 368 q 442 354 438 337 q 434 320 430 323 l 430 323 q 412 331 393 336 q 374 340 356 340 l 356 340 q 344 340 333 339 q 321 337 308 332 l 308 332 z"},"h":{"ha":509,"x_min":0,"x_max":509,"o":"m 21 0 l 21 0 q 19 0 19 6 q 19 12 21 12 l 21 12 q 52 12 64 27 q 75 41 75 81 l 75 81 l 75 589 q 75 623 69 639 q 63 654 46 654 l 46 654 q 32 654 8 643 l 8 643 q 5 642 2 648 q -1 654 1 655 l 1 655 l 147 724 q 149 725 150 725 q 151 725 152 725 l 152 725 q 157 725 163 721 q 168 716 168 712 l 168 712 l 168 81 q 168 41 180 27 q 191 12 222 12 l 222 12 q 226 12 226 6 q 226 0 222 0 l 222 0 q 202 0 177 1 q 151 2 122 2 l 122 2 q 93 2 67 1 q 41 0 21 0 z m 290 0 l 290 0 q 288 0 288 6 q 288 12 290 12 l 290 12 q 321 12 333 27 q 344 41 344 81 l 344 81 l 344 225 q 344 331 262 331 l 262 331 q 232 331 201 316 q 169 301 151 275 l 151 275 l 145 287 q 180 337 224 368 q 268 398 320 398 l 320 398 q 376 398 407 363 q 437 328 437 273 l 437 273 l 437 81 q 437 41 449 27 q 460 12 491 12 l 491 12 q 495 12 495 6 q 495 0 491 0 l 491 0 q 471 0 446 1 q 420 2 391 2 l 391 2 q 362 2 336 1 q 310 0 290 0 z"},"i":{"ha":263,"x_min":0,"x_max":263,"o":"m 39 0 l 39 0 q 36 0 36 6 q 36 12 39 12 l 39 12 q 70 12 81 27 q 92 41 92 81 l 92 81 l 92 260 q 92 293 86 309 q 79 324 62 324 l 62 324 q 55 324 46 321 q 36 318 25 313 l 25 313 q 21 312 19 318 q 16 324 19 325 l 19 325 l 170 395 q 172 396 173 396 l 173 396 q 178 396 183 391 q 188 386 188 382 l 188 382 q 188 370 187 342 q 186 314 186 262 l 186 262 l 186 81 q 186 41 198 27 q 209 12 240 12 l 240 12 q 243 12 243 6 q 243 0 240 0 l 240 0 q 220 0 194 1 q 168 2 139 2 l 139 2 q 111 2 85 1 q 59 0 39 0 z m 135 495 l 135 495 q 107 495 91 511 q 74 527 74 556 l 74 556 q 74 582 91 598 q 107 613 135 613 l 135 613 q 163 613 178 598 q 193 582 193 556 l 193 556 q 193 495 135 495 z"},"j":{"ha":263,"x_min":0,"x_max":263,"o":"m 188 382 l 188 382 q 188 370 187 342 q 186 314 186 262 l 186 262 l 186 -48 q 186 -114 170 -158 q 153 -203 115 -232 q 76 -261 8 -282 l 8 -282 q 6 -283 4 -277 q 1 -272 4 -271 l 4 -271 q 53 -250 73 -203 q 92 -156 92 -71 l 92 -71 l 92 260 q 92 293 86 309 q 80 324 63 324 l 63 324 q 56 324 47 321 q 37 318 26 313 l 26 313 q 22 312 19 318 q 16 324 19 325 l 19 325 l 170 395 q 172 396 173 396 l 173 396 q 178 396 183 391 q 188 386 188 382 z m 133 495 l 133 495 q 105 495 89 511 q 72 527 72 556 l 72 556 q 72 582 89 598 q 105 613 133 613 l 133 613 q 161 613 176 598 q 191 582 191 556 l 191 556 q 191 495 133 495 z"},"k":{"ha":491,"x_min":0,"x_max":491,"o":"m 21 0 l 21 0 q 19 0 19 6 q 19 12 21 12 l 21 12 q 52 12 64 27 q 75 41 75 81 l 75 81 l 75 589 q 75 623 69 639 q 63 654 46 654 l 46 654 q 32 654 8 643 l 8 643 q 5 642 2 648 q -1 654 1 655 l 1 655 l 147 724 q 150 725 152 725 l 152 725 q 157 725 163 721 q 168 716 168 712 l 168 712 l 168 81 q 168 41 180 27 q 191 12 222 12 l 222 12 q 226 12 226 6 q 226 0 222 0 l 222 0 q 202 0 177 1 q 151 2 122 2 l 122 2 q 93 2 67 1 q 41 0 21 0 z m 273 0 l 273 0 q 270 0 270 6 q 270 12 273 12 l 273 12 q 300 12 307 24 q 314 36 301 53 l 301 53 l 180 208 l 248 260 l 388 81 q 417 44 444 28 q 470 12 497 12 l 497 12 q 500 12 500 6 q 500 0 497 0 l 497 0 q 477 0 451 1 q 425 2 396 2 l 396 2 q 356 2 327 1 q 297 0 273 0 z m 287 290 l 132 149 l 126 165 l 261 295 q 289 321 287 348 q 284 374 249 374 l 249 374 q 247 374 247 380 q 247 386 249 386 l 249 386 q 275 386 302 385 q 328 384 373 384 l 373 384 q 414 384 439 385 q 463 386 485 386 l 485 386 q 488 386 488 380 q 488 374 485 374 l 485 374 q 460 374 426 366 q 391 357 355 339 q 319 320 287 290 l 287 290 z"},"l":{"ha":268,"x_min":0,"x_max":268,"o":"m 35 0 l 35 0 q 33 0 33 6 q 33 12 35 12 l 35 12 q 66 12 78 27 q 89 41 89 81 l 89 81 l 90 589 q 90 623 84 639 q 78 654 61 654 l 61 654 q 48 654 23 643 l 23 643 q 20 642 17 648 q 14 654 16 655 l 16 655 l 163 724 q 165 725 167 725 l 167 725 q 172 725 178 721 q 184 716 184 712 l 184 712 l 184 81 q 184 41 195 27 q 206 12 237 12 l 237 12 q 241 12 241 6 q 241 0 237 0 l 237 0 q 218 0 192 1 q 165 2 136 2 l 136 2 q 107 2 81 1 q 55 0 35 0 z"},"m":{"ha":777,"x_min":0,"x_max":777,"o":"m 558 0 l 558 0 q 555 0 555 6 q 555 12 558 12 l 558 12 q 589 12 601 27 q 612 41 612 81 l 612 81 l 612 225 q 612 331 537 331 l 537 331 q 506 331 477 316 q 448 301 430 275 l 430 275 l 425 287 q 459 337 502 368 q 544 398 594 398 l 594 398 q 647 398 676 368 q 705 337 705 273 l 705 273 l 705 81 q 705 41 717 27 q 728 12 759 12 l 759 12 q 763 12 763 6 q 763 0 759 0 l 759 0 q 739 0 713 1 q 687 2 658 2 l 658 2 q 630 2 604 1 q 578 0 558 0 z m 296 0 l 296 0 q 293 0 293 6 q 293 12 296 12 l 296 12 q 327 12 339 27 q 350 41 350 81 l 350 81 l 350 225 q 350 331 275 331 l 275 331 q 244 331 215 316 q 186 301 168 275 l 168 275 l 163 287 q 197 337 240 368 q 282 398 332 398 l 332 398 q 385 398 414 369 q 443 340 443 284 l 443 284 l 443 81 q 443 41 455 27 q 466 12 497 12 l 497 12 q 501 12 501 6 q 501 0 497 0 l 497 0 q 477 0 451 1 q 425 2 396 2 l 396 2 q 368 2 342 1 q 316 0 296 0 z m 39 0 l 39 0 q 36 0 36 6 q 36 12 39 12 l 39 12 q 70 12 81 27 q 92 41 92 81 l 92 81 l 92 269 q 92 300 85 315 q 78 329 61 329 l 61 329 q 52 329 40 326 q 28 322 13 315 l 13 315 q 9 313 7 319 q 5 325 7 326 l 7 326 l 146 394 q 152 396 153 396 l 153 396 q 164 396 175 372 q 186 348 186 303 l 186 303 l 186 81 q 186 41 198 27 q 209 12 240 12 l 240 12 q 243 12 243 6 q 243 0 240 0 l 240 0 q 220 0 194 1 q 168 2 139 2 l 139 2 q 111 2 85 1 q 59 0 39 0 z"},"n":{"ha":526,"x_min":0,"x_max":526,"o":"m 308 0 l 308 0 q 305 0 305 6 q 305 12 308 12 l 308 12 q 339 12 350 27 q 361 41 361 81 l 361 81 l 361 225 q 361 279 342 305 q 322 331 280 331 l 280 331 q 250 331 219 316 q 187 301 168 275 l 168 275 l 163 287 q 198 337 242 368 q 286 398 338 398 l 338 398 q 394 398 425 363 q 455 328 455 273 l 455 273 l 455 81 q 455 41 467 27 q 478 12 509 12 l 509 12 q 512 12 512 6 q 512 0 509 0 l 509 0 q 489 0 463 1 q 437 2 408 2 l 408 2 q 380 2 354 1 q 328 0 308 0 z m 39 0 l 39 0 q 36 0 36 6 q 36 12 39 12 l 39 12 q 70 12 81 27 q 92 41 92 81 l 92 81 l 92 269 q 92 300 85 315 q 78 329 61 329 l 61 329 q 52 329 40 326 q 28 322 13 315 l 13 315 q 9 313 7 319 q 5 325 7 326 l 7 326 l 146 394 q 152 396 153 396 l 153 396 q 164 396 175 372 q 186 348 186 303 l 186 303 l 186 81 q 186 41 198 27 q 209 12 240 12 l 240 12 q 243 12 243 6 q 243 0 240 0 l 240 0 q 220 0 194 1 q 168 2 139 2 l 139 2 q 111 2 85 1 q 59 0 39 0 z"},"o":{"ha":489,"x_min":0,"x_max":489,"o":"m 237 -13 l 237 -13 q 174 -13 128 16 q 82 45 57 94 q 32 142 32 198 l 32 198 q 32 250 52 288 q 72 326 105 351 q 138 375 177 387 q 216 399 254 399 l 254 399 q 318 399 364 369 q 409 339 433 292 q 457 245 457 192 l 457 192 q 457 131 427 85 q 396 38 346 13 q 296 -13 237 -13 z m 267 8 l 267 8 q 307 8 327 47 q 347 86 347 157 l 347 157 q 347 230 329 279 q 310 328 281 353 q 252 378 220 378 l 220 378 q 181 378 161 343 q 140 308 140 235 l 140 235 q 140 167 157 116 q 174 64 203 36 q 232 8 267 8 z"},"p":{"ha":513,"x_min":0,"x_max":513,"o":"m 26 -275 l 26 -275 q 23 -275 23 -269 q 23 -263 26 -263 l 26 -263 q 61 -263 72 -250 q 82 -237 82 -194 l 82 -194 l 82 269 q 82 300 75 315 q 68 329 50 329 l 50 329 q 42 329 30 326 q 18 322 4 315 l 4 315 q 0 313 -3 319 q -6 325 -4 326 l -4 326 l 138 395 q 140 396 143 396 l 143 396 q 154 396 165 372 q 175 348 175 303 l 175 303 l 175 -194 q 175 -222 182 -237 q 188 -252 207 -257 q 226 -263 264 -263 l 264 -263 q 267 -263 267 -269 q 267 -275 264 -275 l 264 -275 q 236 -275 201 -274 q 166 -273 127 -273 l 127 -273 q 99 -273 73 -274 q 46 -275 26 -275 z m 261 -13 l 261 -13 q 222 -13 195 -7 q 167 -1 129 12 l 129 12 l 164 75 q 186 48 212 30 q 237 12 280 12 l 280 12 q 327 12 354 53 q 381 94 381 184 l 381 184 q 381 264 344 304 q 307 343 257 343 l 257 343 q 220 343 193 324 q 166 305 140 276 l 140 276 l 130 288 q 181 347 228 373 q 274 399 323 399 l 323 399 q 365 399 401 378 q 437 356 460 315 q 482 274 482 215 l 482 215 q 482 151 462 107 q 441 63 408 37 q 375 10 337 -1 q 298 -13 261 -13 z"},"q":{"ha":502,"x_min":0,"x_max":502,"o":"m 198 -13 l 198 -13 q 155 -13 117 8 q 79 28 56 70 q 32 111 32 173 l 32 173 q 32 229 51 272 q 70 314 103 343 q 135 371 175 385 q 215 399 256 399 l 256 399 q 341 399 401 357 l 401 357 l 342 263 q 342 305 324 330 q 306 355 281 367 q 256 378 235 378 l 235 378 q 184 378 160 335 q 135 292 135 212 l 135 212 q 135 122 165 81 q 195 40 244 40 l 244 40 q 275 40 304 53 q 332 66 354 84 l 354 84 l 363 77 q 343 56 319 36 q 295 15 266 1 q 236 -13 198 -13 z m 264 -275 l 264 -275 q 262 -275 262 -269 q 262 -263 264 -263 l 264 -263 q 314 -263 328 -250 q 342 -237 342 -194 l 342 -194 l 342 338 l 480 388 q 484 390 486 385 q 488 380 484 378 l 484 378 q 459 365 447 346 q 435 326 435 295 l 435 295 l 435 -194 q 435 -237 446 -250 q 456 -263 491 -263 l 491 -263 q 494 -263 494 -269 q 494 -275 491 -275 l 491 -275 q 471 -275 445 -274 q 418 -273 389 -273 l 389 -273 q 355 -273 323 -274 q 290 -275 264 -275 z"},"r":{"ha":379,"x_min":0,"x_max":379,"o":"m 161 271 l 161 271 l 153 284 q 192 329 219 353 q 246 377 265 387 q 284 396 299 396 l 299 396 q 320 396 343 381 q 365 365 365 340 l 365 340 q 365 319 353 306 q 340 292 318 292 l 318 292 q 297 292 287 303 q 276 314 268 325 q 259 335 243 335 l 243 335 q 236 335 228 331 q 219 326 204 313 q 188 299 161 271 z m 39 0 l 39 0 q 36 0 36 6 q 36 12 39 12 l 39 12 q 70 12 81 27 q 92 41 92 81 l 92 81 l 92 269 q 92 300 85 315 q 78 329 61 329 l 61 329 q 52 329 40 326 q 28 322 13 315 l 13 315 q 9 313 7 319 q 5 325 7 326 l 7 326 l 146 394 q 152 396 153 396 l 153 396 q 164 396 175 372 q 186 348 186 303 l 186 303 l 186 81 q 186 55 194 40 q 202 24 222 18 q 241 12 275 12 l 275 12 q 279 12 279 6 q 279 0 275 0 l 275 0 q 248 0 214 1 q 179 2 139 2 l 139 2 q 111 2 85 1 q 59 0 39 0 z"},"s":{"ha":337,"x_min":0,"x_max":337,"o":"m 118 338 l 118 338 q 118 317 130 301 q 141 284 159 271 q 177 257 198 244 l 198 244 q 223 230 247 215 q 271 199 287 177 q 303 155 303 120 l 303 120 q 303 88 287 58 q 270 27 237 8 q 204 -11 154 -11 l 154 -11 q 129 -11 104 -5 q 79 0 50 16 l 50 16 q 48 18 46 21 q 44 24 44 28 l 44 28 l 42 127 q 42 130 48 131 q 53 131 54 129 l 54 129 q 65 97 85 70 q 105 42 131 26 q 156 9 182 9 l 182 9 q 202 9 215 22 q 228 34 228 60 l 228 60 q 228 88 216 107 q 203 125 184 139 q 165 152 145 163 l 145 163 q 122 176 99 190 q 76 204 61 226 q 46 247 46 282 l 46 282 q 46 324 67 349 q 88 374 122 385 q 155 396 191 396 l 191 396 q 213 396 232 393 q 250 390 274 381 l 274 381 q 283 378 283 370 l 283 370 q 283 350 282 329 q 281 307 281 281 l 281 281 q 281 278 275 278 q 269 278 269 281 l 269 281 q 269 300 254 322 q 238 344 213 361 q 188 377 159 377 l 159 377 q 145 377 132 370 q 118 363 118 338 z"},"t":{"ha":336,"x_min":0,"x_max":336,"o":"m 184 -12 l 184 -12 q 160 -12 136 -4 q 111 4 95 24 q 78 44 78 80 l 78 80 l 78 302 q 78 323 73 335 q 68 347 57 352 q 46 357 27 357 l 27 357 q 23 357 23 366 q 23 375 27 375 l 27 375 q 78 377 110 398 q 142 418 158 458 l 158 458 q 160 462 167 462 q 173 462 173 458 l 173 458 l 173 113 q 173 73 194 56 q 214 39 244 39 l 244 39 q 267 39 288 49 q 308 58 322 69 l 322 69 q 325 72 330 68 q 334 63 330 60 l 330 60 q 293 23 259 6 q 224 -12 184 -12 z m 299 335 l 299 335 q 258 344 220 348 q 181 351 138 351 l 138 351 l 138 377 q 179 377 219 380 q 258 383 303 387 l 303 387 q 305 387 308 380 q 310 372 310 363 l 310 363 q 310 353 307 344 q 303 334 299 335 z"},"u":{"ha":505,"x_min":0,"x_max":505,"o":"m 192 -12 l 192 -12 q 137 -12 106 23 q 74 58 74 113 l 74 113 l 74 260 q 74 293 67 309 q 59 325 43 325 l 43 325 q 32 325 18 318 l 18 318 q 14 317 12 323 q 9 329 12 330 l 12 330 l 146 394 q 149 395 151 395 l 151 395 q 156 395 162 391 q 167 386 167 382 l 167 382 l 167 161 q 167 107 188 80 q 208 53 250 53 l 250 53 q 279 53 308 70 q 337 86 354 111 l 354 111 l 360 99 q 326 50 284 19 q 242 -12 192 -12 z m 428 382 l 428 382 l 428 116 q 428 82 435 68 q 441 54 456 54 l 456 54 q 463 54 474 57 q 484 60 497 65 l 497 65 q 501 67 504 62 q 507 56 504 54 l 504 54 l 366 -13 q 364 -14 361 -14 l 361 -14 q 351 -14 343 11 q 335 36 335 82 l 335 82 l 335 260 q 335 293 328 309 q 320 325 304 325 l 304 325 q 293 325 278 318 l 278 318 q 275 317 273 323 q 270 329 273 330 l 273 330 l 407 394 q 409 395 412 395 l 412 395 q 417 395 423 391 q 428 386 428 382 z"},"v":{"ha":440,"x_min":0,"x_max":440,"o":"m 454 386 l 454 386 q 456 386 456 380 q 456 374 454 374 l 454 374 q 425 374 403 352 q 380 330 360 284 l 360 284 l 237 0 q 235 -5 227 -5 q 218 -5 215 0 l 215 0 l 62 303 q 40 349 24 362 q 8 374 -14 374 l -14 374 q -17 374 -17 380 q -17 386 -14 386 l -14 386 q 3 386 25 385 q 46 384 83 384 l 83 384 q 124 384 153 385 q 182 386 207 386 l 207 386 q 210 386 210 380 q 210 374 207 374 l 207 374 q 176 374 159 366 q 142 358 154 335 l 154 335 l 274 109 l 223 21 l 332 285 q 349 326 333 350 q 316 374 276 374 l 276 374 q 274 374 274 380 q 274 386 276 386 l 276 386 q 300 386 322 385 q 343 384 377 384 l 377 384 q 401 384 417 385 q 432 386 454 386 z"},"w":{"ha":685,"x_min":0,"x_max":685,"o":"m 461 1 l 461 1 l 308 303 q 286 346 274 360 q 262 374 243 374 l 243 374 q 241 374 241 380 q 241 386 243 386 l 243 386 q 258 386 277 385 q 296 384 329 384 l 329 384 q 366 384 393 385 q 419 386 441 386 l 441 386 q 443 386 443 380 q 443 374 441 374 l 441 374 q 416 374 403 364 q 390 354 400 335 l 400 335 l 519 111 l 469 22 l 578 285 q 595 326 578 350 q 561 374 522 374 l 522 374 q 519 374 519 380 q 519 386 522 386 l 522 386 q 545 386 567 385 q 588 384 622 384 l 622 384 q 647 384 662 385 q 677 386 699 386 l 699 386 q 702 386 702 380 q 702 374 699 374 l 699 374 q 671 374 649 353 q 626 331 606 284 l 606 284 l 483 1 q 482 -3 473 -3 q 463 -3 461 1 z m 215 1 l 215 1 l 62 303 q 40 348 24 361 q 8 374 -14 374 l -14 374 q -17 374 -17 380 q -17 386 -14 386 l -14 386 q 3 386 25 385 q 46 384 83 384 l 83 384 q 120 384 147 385 q 173 386 195 386 l 195 386 q 198 386 198 380 q 198 374 195 374 l 195 374 q 170 374 154 366 q 137 358 150 335 l 150 335 l 274 111 l 223 22 l 332 285 l 360 284 l 237 1 q 236 -3 227 -3 q 217 -3 215 1 z"},"x":{"ha":440,"x_min":0,"x_max":440,"o":"m 248 0 l 248 0 q 245 0 245 6 q 245 12 248 12 l 248 12 q 267 12 270 22 q 273 32 260 51 l 260 51 l 92 303 q 71 335 51 355 q 31 374 14 374 l 14 374 q 12 374 12 380 q 12 386 14 386 l 14 386 q 29 386 45 385 q 61 384 76 384 l 76 384 q 112 384 140 385 q 168 386 191 386 l 191 386 q 193 386 193 380 q 193 374 191 374 l 191 374 q 175 374 170 365 q 165 356 179 335 l 179 335 l 346 83 q 372 45 396 29 q 419 12 436 12 l 436 12 q 439 12 439 6 q 439 0 436 0 l 436 0 q 419 0 400 1 q 380 2 363 2 l 363 2 q 327 2 299 1 q 271 0 248 0 z m 4 0 l 4 0 q 1 0 1 6 q 1 12 4 12 l 4 12 q 36 12 71 38 q 105 63 136 105 l 136 105 l 202 195 l 216 181 l 160 98 q 142 71 138 52 q 134 32 145 22 q 156 12 181 12 l 181 12 q 184 12 184 6 q 184 0 181 0 l 181 0 q 158 0 137 1 q 115 2 81 2 l 81 2 q 56 2 41 1 q 26 0 4 0 z m 290 281 l 223 191 l 209 205 l 265 288 q 294 329 289 352 q 283 374 244 374 l 244 374 q 242 374 242 380 q 242 386 244 386 l 244 386 q 268 386 290 385 q 311 384 345 384 l 345 384 q 370 384 385 385 q 400 386 422 386 l 422 386 q 425 386 425 380 q 425 374 422 374 l 422 374 q 391 374 356 349 q 321 323 290 281 l 290 281 z"},"y":{"ha":427,"x_min":0,"x_max":427,"o":"m 441 386 l 441 386 q 443 386 443 380 q 443 374 441 374 l 441 374 q 407 374 384 345 q 361 316 343 267 l 343 267 l 232 -28 q 196 -124 163 -179 q 129 -235 95 -258 q 61 -281 23 -281 l 23 -281 q -6 -281 -22 -268 q -39 -256 -39 -232 l -39 -232 q -39 -208 -24 -196 q -10 -185 9 -185 l 9 -185 q 26 -185 36 -191 q 46 -198 56 -204 q 66 -211 82 -211 l 82 -211 q 106 -211 126 -190 q 146 -170 169 -120 q 192 -71 223 15 l 223 15 l 220 -40 l 50 303 q 28 347 16 361 q 3 374 -15 374 l -15 374 q -18 374 -18 380 q -18 386 -15 386 l -15 386 q 5 386 28 385 q 50 384 70 384 l 70 384 q 106 384 133 385 q 160 386 182 386 l 182 386 q 185 386 185 380 q 185 374 182 374 l 182 374 q 147 374 137 366 q 127 358 138 335 l 138 335 l 265 75 l 229 16 l 316 268 q 333 317 319 346 q 304 374 263 374 l 263 374 q 261 374 261 380 q 261 386 263 386 l 263 386 q 287 386 309 385 q 330 384 364 384 l 364 384 q 388 384 404 385 q 419 386 441 386 z"},"z":{"ha":405,"x_min":0,"x_max":405,"o":"m 33 12 l 33 12 l 256 364 q 260 371 251 371 l 251 371 q 198 371 156 360 q 113 348 85 325 q 56 302 43 265 l 43 265 q 42 263 37 264 q 31 265 32 268 l 32 268 l 74 425 q 75 427 81 426 q 87 425 85 422 l 85 422 q 80 400 92 393 q 104 386 135 386 l 135 386 q 174 386 232 386 q 290 386 365 386 l 365 386 q 370 386 373 382 q 375 378 373 374 l 373 374 l 145 25 q 142 18 150 18 l 150 18 q 199 18 237 25 q 274 32 301 46 q 328 60 345 82 q 361 103 367 132 l 367 132 q 368 135 374 135 q 379 135 379 132 l 379 132 l 377 11 q 377 7 375 4 q 372 0 367 0 l 367 0 q 318 0 261 0 q 203 0 146 0 q 89 0 40 0 l 40 0 q 36 0 34 4 q 31 8 33 12 z"},"{":{"ha":289,"x_min":0,"x_max":289,"o":"m 32 298 l 32 298 q 29 298 29 305 q 29 311 32 311 l 32 311 q 58 316 71 349 q 83 382 87 431 q 90 479 90 529 l 90 529 q 90 592 97 631 q 104 670 121 690 q 138 710 170 718 q 201 725 250 725 l 250 725 q 254 725 254 719 q 254 713 250 713 l 250 713 q 224 713 210 686 q 196 658 195 607 l 195 607 q 194 527 191 476 q 187 424 177 393 q 166 362 143 342 q 120 322 78 305 l 78 305 q 120 287 143 267 q 166 246 177 214 q 187 182 191 131 q 194 80 195 1 l 195 1 q 196 -50 210 -77 q 224 -105 250 -105 l 250 -105 q 254 -105 254 -111 q 254 -117 250 -117 l 250 -117 q 200 -117 169 -109 q 137 -102 120 -81 q 103 -60 97 -21 q 90 17 90 80 l 90 80 q 90 131 87 180 q 83 228 71 261 q 58 294 32 298 z"},"|":{"ha":168,"x_min":0,"x_max":168,"o":"m 62 -154 l 62 -154 l 62 731 q 62 736 74 738 q 86 739 98 738 q 109 736 109 731 l 109 731 l 109 -154 q 109 -159 98 -160 q 86 -162 74 -160 q 62 -159 62 -154 z"},"}":{"ha":283,"x_min":0,"x_max":283,"o":"m 251 298 l 251 298 q 254 298 254 305 q 254 311 251 311 l 251 311 q 225 316 213 349 q 200 382 197 431 q 193 479 193 529 l 193 529 q 193 592 186 631 q 179 670 162 690 q 145 710 114 718 q 82 725 33 725 l 33 725 q 29 725 29 719 q 29 713 33 713 l 33 713 q 59 713 73 686 q 87 658 88 607 l 88 607 q 90 527 93 476 q 96 424 107 393 q 117 362 140 342 q 163 322 205 305 l 205 305 q 163 287 140 267 q 117 246 107 214 q 96 182 93 131 q 90 80 88 1 l 88 1 q 87 -50 73 -77 q 59 -105 33 -105 l 33 -105 q 29 -105 29 -111 q 29 -117 33 -117 l 33 -117 q 83 -117 115 -109 q 146 -102 163 -81 q 180 -60 187 -21 q 193 17 193 80 l 193 80 q 193 131 197 180 q 200 228 213 261 q 225 294 251 298 z"},"~":{"ha":443,"x_min":0,"x_max":443,"o":"m 315 212 l 315 212 q 347 212 363 225 q 378 237 389 250 l 389 250 q 391 252 395 249 q 398 246 396 243 l 396 243 q 370 201 351 179 q 332 156 316 148 q 299 139 280 139 l 280 139 q 253 139 230 148 q 207 157 183 166 q 158 175 129 175 l 129 175 q 100 175 86 165 q 72 154 55 137 l 55 137 q 54 136 51 139 q 47 141 48 144 l 48 144 q 60 163 79 188 q 97 212 121 230 q 144 248 171 248 l 171 248 q 192 248 215 239 q 237 230 263 221 q 288 212 315 212 z"}}}
